<?xml version="1.0" standalone="no"?>
<!DOCTYPE svg PUBLIC "-//W3C//DTD SVG 1.1//EN" "http://www.w3.org/Graphics/SVG/1.1/DTD/svg11.dtd" >
<svg xmlns="http://www.w3.org/2000/svg">
<metadata></metadata>
<defs>
<font id="libel_suitregular" horiz-adv-x="741" >
<font-face units-per-em="2048" ascent="1618" descent="-430" />
<missing-glyph horiz-adv-x="380" />
<glyph horiz-adv-x="2048" />
<glyph horiz-adv-x="2048" />
<glyph unicode="&#xd;" horiz-adv-x="421" />
<glyph horiz-adv-x="380" />
<glyph unicode=" "  horiz-adv-x="380" />
<glyph unicode="&#x09;" horiz-adv-x="380" />
<glyph unicode="&#xa0;" horiz-adv-x="380" />
<glyph unicode="!" horiz-adv-x="346" d="M63 1604h216l-78 -1117h-60zM80 106q0 47 22.5 84t67.5 37q47 0 69.5 -36t22.5 -85q0 -47 -22.5 -82.5t-69.5 -35.5q-45 0 -67.5 37.5t-22.5 80.5z" />
<glyph unicode="&#x22;" horiz-adv-x="507" d="M57 1630h160l-53 -520h-55zM287 1630h164l-54 -520h-53z" />
<glyph unicode="#" horiz-adv-x="829" d="M39 506l31 145h131l63 303h-131l31 146h131l104 504h109l-105 -504h134l104 504h109l-105 -504h150l-29 -146h-150l-65 -303h149l-28 -145h-150l-104 -506h-113l105 506h-129l-105 -506h-110l104 506h-131zM309 651h133l62 303h-129z" />
<glyph unicode="$" horiz-adv-x="772" d="M45 477v98l188 -45v-53q0 -115 99 -145v381q-90 49 -145.5 91t-87 90t-43 104.5t-11.5 131.5q0 70 22.5 131.5t60.5 107.5t90 76t114 40v119h71v-117q61 -10 114.5 -41t93.5 -77t62.5 -107.5t22.5 -131.5v-98l-188 45v53q0 117 -105 148v-385q94 -55 151.5 -98 t89.5 -89.5t42 -99.5t10 -129q0 -68 -22.5 -130t-62.5 -109.5t-93 -79t-115 -37.5v-121h-71v123q-61 8 -113.5 39t-90.5 78t-60.5 108.5t-22.5 128.5zM233 1130q0 -117 99 -190v336q-98 -31 -99 -146zM403 332q105 24 105 145q0 123 -105 191v-336z" />
<glyph unicode="%" horiz-adv-x="1067" d="M66 907v557q0 37 14 69t38.5 56.5t56.5 39t69 14.5t69.5 -14.5t57 -39t39 -56.5t14.5 -69v-557q0 -76 -52.5 -129t-127.5 -53q-37 0 -69 14.5t-56.5 39t-38.5 58.5t-14 70zM72 0l784 1604h129l-780 -1604h-133zM184 907q0 -27 16.5 -43t43.5 -16q25 0 42 16.5t17 42.5 v557q0 27 -17.5 42.5t-41.5 15.5q-27 0 -43.5 -15.5t-16.5 -42.5v-557zM644 145v557q0 37 14 69t38.5 56.5t56.5 39t69 14.5t69.5 -14.5t57 -39t39 -56.5t14.5 -69v-557q0 -76 -52.5 -129t-127.5 -53q-37 0 -69 14.5t-56.5 39t-38.5 58.5t-14 70zM762 145q0 -27 16.5 -43 t43.5 -16q25 0 42 16.5t17 42.5v557q0 27 -17.5 42.5t-41.5 15.5q-27 0 -43.5 -15.5t-16.5 -42.5v-557z" />
<glyph unicode="&#x26;" horiz-adv-x="806" d="M63 283v346q0 119 125 192q-125 61 -125 205v295q0 141 79 225t202 84q61 0 113.5 -23.5t89.5 -64.5t58.5 -97t21.5 -124v-53l-181 -60v113q0 61 -30.5 96t-71.5 35t-70.5 -35t-29.5 -96v-277q0 -135 184 -135h18v90l158 60v-150h156v-180h-156v-446q0 -61 27.5 -96 t64.5 -35q35 0 64 30v-202q-23 -8 -70 -9q-102 0 -162 82q-88 -82 -198 -82q-53 0 -101.5 22.5t-85.5 63.5t-58.5 98.5t-21.5 127.5zM244 283q0 -61 29.5 -96t70.5 -35t71.5 34.5t30.5 96.5v446h-18q-184 0 -184 -154v-292z" />
<glyph unicode="'" horiz-adv-x="253" d="M45 1630h160l-51 -520h-56z" />
<glyph unicode="(" horiz-adv-x="395" d="M61 135v1335q0 61 21.5 115.5t58.5 96.5t88.5 69t110.5 33v-185q-98 -27 -98 -129v-1335q0 -102 98 -129v-184q-59 6 -110.5 32.5t-88.5 68.5t-58.5 96.5t-21.5 115.5z" />
<glyph unicode=")" horiz-adv-x="395" d="M55 6q98 27 99 129v1335q0 100 -99 129v185q57 -6 108.5 -33t89.5 -69t59.5 -96t21.5 -116v-1335q0 -61 -21.5 -115.5t-59.5 -96.5t-89 -68.5t-109 -32.5v184z" />
<glyph unicode="*" horiz-adv-x="749" d="M39 1020l280 164l-274 159l70 97l229 -197l-27 299h119l-30 -297l231 195l65 -97l-274 -159l283 -164l-68 -96l-237 198l30 -311h-119l27 313l-240 -200z" />
<glyph unicode="+" horiz-adv-x="714" d="M31 668v176h245v289h173v-289h229v-176h-229v-295h-173v295h-245z" />
<glyph unicode="," horiz-adv-x="286" d="M37 -350l18 467q2 59 28 85.5t58 26.5q35 0 66 -30.5t31 -83.5q0 -31 -13 -64l-137 -401h-51z" />
<glyph unicode="-" horiz-adv-x="655" d="M68 725v158h516v-158h-516z" />
<glyph unicode="." horiz-adv-x="290" d="M55 106q0 47 21.5 84t68.5 37q45 0 68 -36t23 -85q0 -47 -23 -82.5t-68 -35.5q-47 0 -68.5 37.5t-21.5 80.5z" />
<glyph unicode="/" horiz-adv-x="684" d="M25 -88l534 1780h100l-526 -1780h-108z" />
<glyph unicode="0" horiz-adv-x="751" d="M63 283v1034q0 63 25 119.5t68 99.5t99 67.5t120 24.5q66 0 122 -24.5t98 -67.5t66.5 -99.5t24.5 -119.5v-1034q0 -66 -24.5 -122.5t-66.5 -98.5t-98.5 -66.5t-121.5 -24.5q-63 0 -119.5 24.5t-99.5 66.5t-68 98.5t-25 122.5zM244 283q0 -55 37.5 -93t93.5 -38 q53 0 92 37.5t39 93.5v1034q0 53 -39 92t-92 39q-55 0 -93 -39t-38 -92v-1034z" />
<glyph unicode="1" horiz-adv-x="407" d="M35 1341v148q125 0 125 115h180v-1604h-180v1341h-125z" />
<glyph unicode="2" horiz-adv-x="737" d="M61 0v315q0 72 17.5 136.5t66.5 154.5q20 39 61.5 105.5t87.5 139.5t87 140.5t63 108.5q35 70 47.5 118t12.5 101t-39 92t-92 39q-55 0 -93 -39t-38 -92v-49l-181 -39v88q0 63 20.5 120.5t60.5 99.5t98.5 66.5t132.5 24.5q70 0 128 -24.5t98 -66.5t62.5 -99.5 t22.5 -120.5q0 -31 -1 -60.5t-8 -63.5t-24.5 -76t-48.5 -99q-25 -47 -57.5 -101.5t-68.5 -112.5t-73.5 -119.5t-72.5 -121.5q-43 -72 -65.5 -137.5t-22.5 -112.5v-135h442v-180h-623z" />
<glyph unicode="3" horiz-adv-x="739" d="M55 283v79l181 -59v-20q0 -55 36.5 -93t94.5 -38q53 0 92 37.5t39 93.5v266q0 96 -44 141t-161 45v144q115 0 152.5 39.5t37.5 142.5v258q0 53 -31.5 92t-84.5 39q-57 0 -94 -39t-37 -92v-53h-181v53q0 76 24.5 133t66.5 97t98.5 60.5t122.5 20.5q63 0 118.5 -24.5 t95.5 -66.5t62.5 -99.5t22.5 -120.5v-270q0 -102 -50.5 -157.5t-111.5 -76.5q33 -8 63.5 -28.5t55 -52.5t40 -75t15.5 -98v-278q0 -70 -24.5 -127.5t-67.5 -98.5t-99.5 -63.5t-119.5 -22.5q-66 0 -122.5 24.5t-98.5 66.5t-66.5 98.5t-24.5 122.5z" />
<glyph unicode="4" horiz-adv-x="751" d="M27 557l100 721h168l-72 -539h203v865h180v-865h96v-182h-96v-557h-180v557h-399z" />
<glyph unicode="5" d="M57 283v79l181 -59v-20q0 -55 37.5 -93t93.5 -38q53 0 92 37.5t39 93.5v657q0 27 -13.5 51.5t-34 43t-46 29.5t-52.5 11q-61 0 -93 -34.5t-40 -79.5l-162 45l45 598h576v-181h-424l-18 -233q25 27 60.5 44t100.5 17q70 0 122 -24.5t87 -66.5t53.5 -99t18.5 -121v-657 q0 -66 -24.5 -122.5t-67.5 -98.5t-99.5 -66.5t-119.5 -24.5q-66 0 -122.5 24.5t-98.5 66.5t-66.5 98.5t-24.5 122.5z" />
<glyph unicode="6" horiz-adv-x="747" d="M63 283v1036q0 63 20.5 120.5t59.5 99.5t97.5 66.5t134.5 24.5t133 -24.5t97 -66.5t60.5 -99.5t20.5 -120.5v-53h-180v53q0 53 -39 92t-92 39q-55 0 -93 -39t-38 -92v-262q20 20 55 39.5t107 19.5q68 0 121 -25.5t87.5 -68.5t53 -100.5t18.5 -120.5v-518 q0 -66 -24.5 -122.5t-66.5 -98.5t-98.5 -66.5t-121.5 -24.5q-63 0 -119.5 24.5t-99.5 66.5t-68 98.5t-25 122.5zM244 283q0 -55 37.5 -93t93.5 -38q53 0 92 37.5t39 93.5v518q0 55 -39 95t-92 40q-59 0 -95 -44t-36 -104v-505z" />
<glyph unicode="7" horiz-adv-x="661" d="M45 1423v181h580v-134l-330 -1470h-197l357 1423h-410z" />
<glyph unicode="8" horiz-adv-x="745" d="M61 283v331q0 86 40 145.5t87 80.5q-49 18 -81.5 77.5t-32.5 137.5v264q0 147 83 229t216 82q63 0 118.5 -21.5t95.5 -61.5t62.5 -97t22.5 -131v-264q0 -78 -32 -135.5t-85 -79.5q53 -23 91 -81.5t38 -144.5v-331q0 -66 -24.5 -122.5t-67.5 -98.5t-99.5 -66.5 t-119.5 -24.5q-66 0 -123 24.5t-99 66.5t-66 98.5t-24 122.5zM242 283q0 -55 37.5 -93t93.5 -38q53 0 92 37.5t39 93.5v344q0 59 -40 94t-93 35t-91 -34t-38 -95v-344zM256 1042q0 -61 31.5 -96t87.5 -35q51 0 82.5 34t31.5 97v277q0 53 -34.5 92t-81.5 39q-55 0 -86 -39 t-31 -92v-277z" />
<glyph unicode="9" horiz-adv-x="749" d="M61 283v53h181v-53q0 -55 37.5 -93t93.5 -38q53 0 92 37.5t39 93.5v305q-18 -14 -59.5 -31.5t-106.5 -17.5q-51 0 -101.5 20.5t-89 60t-62.5 97t-24 133.5v469q0 63 24 120.5t66 99.5t99 66.5t123 24.5q63 0 119.5 -24.5t99.5 -66.5t67.5 -99.5t24.5 -120.5v-1036 q0 -72 -23.5 -130.5t-64.5 -98.5t-98.5 -61.5t-124.5 -21.5q-137 0 -224.5 83t-87.5 229zM242 850q0 -55 37.5 -93t93.5 -38q61 0 96 41t35 100v459q0 53 -39 92t-92 39q-55 0 -93 -39t-38 -92v-469z" />
<glyph unicode=":" horiz-adv-x="303" d="M61 106q0 47 21.5 84t69.5 37q45 0 67.5 -36t22.5 -85q0 -47 -22.5 -82.5t-67.5 -35.5q-47 0 -69 37.5t-22 80.5zM61 711q0 47 21.5 83.5t69.5 36.5q45 0 67.5 -35.5t22.5 -84.5q0 -47 -22.5 -83t-67.5 -36q-47 0 -69 38t-22 81z" />
<glyph unicode=";" horiz-adv-x="288" d="M37 -350l18 467q2 59 28 85.5t58 26.5q35 0 66 -30.5t31 -83.5q0 -31 -13 -64l-137 -401h-51zM61 711q0 47 21.5 83.5t69.5 36.5q45 0 67.5 -35.5t22.5 -84.5q-2 -47 -23.5 -83t-66.5 -36q-47 0 -69 38t-22 81z" />
<glyph unicode="&#x3c;" horiz-adv-x="512" d="M23 653v125l436 391v-211l-314 -241l314 -252v-207z" />
<glyph unicode="=" horiz-adv-x="512" d="M70 459v151h403v-151h-403zM70 836v155h403v-155h-403z" />
<glyph unicode="&#x3e;" horiz-adv-x="526" d="M70 258v207l311 252l-311 241v211l434 -391v-125z" />
<glyph unicode="?" horiz-adv-x="696" d="M37 1231v88q0 68 22.5 125t64.5 98t99.5 64.5t124.5 23.5q141 0 229.5 -79.5t88.5 -231.5q0 -90 -32 -166t-77 -146.5t-91 -141t-73 -150.5q-16 -47 -28.5 -116t-22.5 -130h-104q-4 33 -8.5 74t-4.5 69q0 90 21.5 166t56.5 154q20 47 52 92t60.5 91t49 94t20.5 102 q0 66 -34.5 102.5t-100.5 36.5q-55 0 -94 -39t-39 -92v-49zM223 106q0 47 22.5 84t67.5 37t67.5 -36t22.5 -85q0 -47 -22.5 -82.5t-67.5 -35.5t-67.5 37.5t-22.5 80.5z" />
<glyph unicode="@" horiz-adv-x="1380" d="M51 551q0 190 42 355t128 285t217 188.5t310 68.5q152 0 261 -49t180 -142.5t104.5 -228.5t33.5 -309q0 -315 -85 -480t-228 -165q-76 0 -123 24.5t-78 59.5q-16 -18 -49 -42t-98 -24q-49 0 -89 21.5t-69 57.5t-44 84t-15 103v361q0 55 14 103t40.5 85t64.5 58.5t87 21.5 q47 0 81 -19.5t44 -39.5v51l138 51v-760q12 -55 79 -55q45 0 81 25.5t60.5 85t38 156t13.5 237.5q0 131 -30 238.5t-87 183.5t-139 116.5t-186 40.5q-133 0 -235.5 -55t-173.5 -153.5t-107.5 -235.5t-36.5 -303q0 -152 29.5 -278t75.5 -220t98.5 -154.5t99.5 -80.5l-72 -142 q-63 23 -130 88.5t-121 175t-89 262t-35 349.5zM582 358q0 -47 28.5 -79.5t69.5 -32.5t70.5 32.5t29.5 79.5v361q0 47 -29.5 81t-70.5 34t-69.5 -34t-28.5 -81v-361z" />
<glyph unicode="A" horiz-adv-x="739" d="M43 0l246 1604h166l241 -1604h-182l-27 199h-227l-24 -199h-193zM281 367h186l-92 702z" />
<glyph unicode="B" horiz-adv-x="749" d="M68 0v1604h286q160 0 237 -90.5t77 -231.5v-223q0 -190 -131 -236q66 -20 109.5 -75.5t43.5 -161.5v-264q0 -143 -79 -232.5t-222 -89.5h-321zM248 180h106q80 0 118 41t38 131v211q0 92 -36 134t-120 42h-106v-559zM248 907h92q66 0 110 39t44 135v170q0 82 -32 127 t-122 45h-92v-516z" />
<glyph unicode="C" d="M63 283v1036q0 80 25 138.5t68 97t99 57t120 18.5q66 0 122 -22.5t98 -62.5t66.5 -98t24.5 -128v-53h-180v53q0 68 -39 99.5t-92 31.5q-55 0 -93 -32t-38 -99v-1036q0 -55 37.5 -93t93.5 -38q53 0 92 37.5t39 93.5v20l180 59v-79q0 -74 -24.5 -132.5t-66.5 -98.5 t-98.5 -60.5t-121.5 -20.5q-63 0 -119.5 20.5t-99.5 60.5t-68 98.5t-25 132.5z" />
<glyph unicode="D" horiz-adv-x="757" d="M68 0v1604h311q72 0 130 -24t98 -65.5t61.5 -99t21.5 -125.5v-977q0 -66 -21.5 -123t-61.5 -99t-98 -66.5t-130 -24.5h-311zM248 180h131q55 0 93 39t38 94v977q0 63 -38 98t-93 35h-131v-1243z" />
<glyph unicode="E" horiz-adv-x="645" d="M68 0v1604h530v-181h-350v-508h203v-180h-203v-555h350v-180h-530z" />
<glyph unicode="F" horiz-adv-x="645" d="M68 0v1604h553v-181h-373v-561h235v-180h-235v-682h-180z" />
<glyph unicode="G" horiz-adv-x="765" d="M63 283v1036q0 74 25 131t68 97t99 61.5t120 21.5q66 0 122 -21.5t98 -62.5t66.5 -98t24.5 -129v-53h-180v53q0 70 -39 100.5t-92 30.5q-55 0 -93 -33t-38 -98v-1036q0 -55 42 -93t97 -38t97 37.5t42 93.5v436h-149v166h329v-885h-120l-19 68q-33 -47 -80 -72t-123 -25 q-55 0 -108 18.5t-95 57.5t-68 97.5t-26 138.5z" />
<glyph unicode="H" horiz-adv-x="761" d="M68 0v1604h180v-701h262v701h180v-1604h-180v723h-262v-723h-180z" />
<glyph unicode="I" horiz-adv-x="319" d="M68 0v1604h180v-1604h-180z" />
<glyph unicode="J" horiz-adv-x="716" d="M25 283v79l180 -59v-20q0 -55 31.5 -93t101.5 -38q55 0 93 32.5t38 116.5v1303h180v-1305q0 -90 -24.5 -152.5t-66.5 -101.5t-99.5 -56.5t-120.5 -17.5q-72 0 -129 24.5t-98 66.5t-63.5 98.5t-22.5 122.5z" />
<glyph unicode="K" horiz-adv-x="802" d="M68 0v1604h180v-545l301 545h215l-377 -646l377 -958h-213l-303 815v-815h-180z" />
<glyph unicode="L" horiz-adv-x="581" d="M68 0v1604h180v-1424h309v-180h-489z" />
<glyph unicode="M" horiz-adv-x="1042" d="M68 0v1604h219l243 -1186l265 1186h180v-1604h-166v903l-211 -903h-154l-208 903v-903h-168z" />
<glyph unicode="N" horiz-adv-x="761" d="M68 0v1604h180l274 -990v990h168v-1604h-160l-292 977v-977h-170z" />
<glyph unicode="O" horiz-adv-x="751" d="M63 283v1036q0 74 25 131t68 97t99 61.5t120 21.5q66 0 122 -21.5t98 -61.5t66.5 -97t24.5 -131v-1036q0 -70 -24.5 -127.5t-66.5 -98.5t-98.5 -63.5t-121.5 -22.5q-63 0 -119.5 22.5t-99.5 63.5t-68 98.5t-25 127.5zM244 283q0 -63 37.5 -97t93.5 -34q53 0 92 33.5 t39 97.5v1036q0 61 -39 96t-92 35q-55 0 -93 -35t-38 -96v-1036z" />
<glyph unicode="P" horiz-adv-x="722" d="M68 0v1604h321q147 0 224 -87t77 -235v-293q0 -66 -18.5 -125t-55 -104t-93 -70.5t-134.5 -25.5h-141v-664h-180zM248 846h106q74 0 115 38t41 136v231q0 96 -35 134t-121 38h-106v-577z" />
<glyph unicode="Q" horiz-adv-x="798" d="M59 283v1036q0 63 25 120.5t68 99.5t99 66.5t120 24.5q66 0 123 -24.5t99 -66.5t65.5 -99.5t23.5 -120.5v-1036q0 -102 -57 -181l120 -122l-120 -119l-131 135q-59 -25 -123 -25q-63 0 -119.5 20.5t-99.5 60.5t-68 98.5t-25 132.5zM240 276q0 -61 37.5 -95t93.5 -34 q53 0 92 33t39 96v1043q0 66 -39 98.5t-92 32.5q-55 0 -93 -33t-38 -98v-1043z" />
<glyph unicode="R" horiz-adv-x="755" d="M68 0v1604h311q147 0 224 -81t77 -241v-221q0 -86 -39 -140.5t-104 -76.5q63 -20 108 -82t45 -174v-588h-180v565q0 55 -8 90t-26.5 53.5t-48.5 25.5t-73 7h-106v-741h-180zM248 907h94q82 0 120 39t38 135v170q0 86 -30 129t-128 43h-94v-516z" />
<glyph unicode="S" horiz-adv-x="747" d="M55 283v86l181 -39v-47q0 -55 41.5 -94t95.5 -39q72 0 106.5 44t34.5 109q0 53 -6 94t-23 82q-25 63 -59.5 120.5t-74.5 113t-82 110t-81 107.5q-61 86 -97 168t-36 205q0 147 80 237t232 90q135 0 223 -77.5t88 -233.5v-88l-180 39v49q0 53 -39 92t-92 39 q-41 0 -67 -16.5t-41 -42t-20.5 -57t-5.5 -64.5q0 -49 21.5 -101.5t54.5 -103.5t72 -100.5t72 -92.5q43 -57 86 -118.5t76.5 -126t55 -134t21.5 -145.5q0 -74 -17.5 -142.5t-57 -120.5t-102 -83t-150.5 -31q-72 0 -128.5 24.5t-97.5 66.5t-62.5 98.5t-21.5 122.5z" />
<glyph unicode="T" horiz-adv-x="589" d="M20 1423v181h549v-181h-186v-1423h-180v1423h-183z" />
<glyph unicode="U" horiz-adv-x="757" d="M66 283v1321h180v-1321q0 -70 38 -100.5t93 -30.5q53 0 92 30.5t39 100.5v1321h180v-1321q0 -72 -24.5 -129.5t-66.5 -98.5t-98.5 -62.5t-121.5 -21.5q-63 0 -119.5 21.5t-99.5 62.5t-67.5 98.5t-24.5 129.5z" />
<glyph unicode="V" horiz-adv-x="665" d="M20 1604h207l117 -1074l117 1074h184l-231 -1604h-168z" />
<glyph unicode="W" horiz-adv-x="1052" d="M20 1604h207l97 -1004l137 1004h155l136 -1004l96 1004h184l-211 -1604h-166l-131 999l-131 -999h-168z" />
<glyph unicode="X" horiz-adv-x="817" d="M59 0l244 809l-235 795h204l146 -543l133 543h197l-236 -783l246 -821h-207l-150 580l-145 -580h-197z" />
<glyph unicode="Y" horiz-adv-x="757" d="M20 1604h205l150 -576l149 576h195l-258 -846v-758h-182v750z" />
<glyph unicode="Z" horiz-adv-x="739" d="M57 0v141l416 1268h-407v195h614v-142l-410 -1267h410v-195h-623z" />
<glyph unicode="[" horiz-adv-x="503" d="M184 -154v1919h293v-123h-164v-1669h164v-127h-293z" />
<glyph unicode="\" horiz-adv-x="684" d="M25 1692h100l534 -1780h-108z" />
<glyph unicode="]" horiz-adv-x="503" d="M41 -27h164v1669h-164v123h293v-1919h-293v127z" />
<glyph unicode="^" horiz-adv-x="679" d="M55 1087v203l285 283l283 -283v-203l-283 283z" />
<glyph unicode="_" horiz-adv-x="870" d="M20 -29h840v-123h-840v123z" />
<glyph unicode="`" horiz-adv-x="602" d="M121 1669h170l190 -323h-110z" />
<glyph unicode="a" d="M49 299q0 92 24.5 162.5t63.5 126t88 99.5t98.5 80t94.5 68.5t78 67.5v62q0 59 -26 96t-81 37q-104 0 -133 -84l-152 98q20 31 44 59.5t58 50t79 34t106 12.5q129 0 207 -80t78 -223v-965h-119l-41 72q-23 -41 -70 -71t-124 -30q-49 0 -98.5 18.5t-88.5 58.5t-62.5 101.5 t-23.5 149.5zM225 315q0 -78 35 -120.5t100 -42.5q72 0 106 49t34 114v355q-35 -23 -82 -54.5t-90 -75.5t-73 -99.5t-30 -125.5z" />
<glyph unicode="b" horiz-adv-x="763" d="M61 0v1610l181 59v-459q23 27 64.5 42.5t101.5 15.5q129 0 211.5 -79t82.5 -224v-662q0 -66 -20 -125t-58 -105t-92.5 -74t-123.5 -28q-78 0 -122 32t-65 56l-41 -59h-119zM242 303q0 -78 41 -114.5t96 -36.5t99 31.5t44 119.5v662q0 68 -43 100.5t-98 32.5t-97 -34 t-42 -99v-662z" />
<glyph unicode="c" horiz-adv-x="739" d="M61 283v682q0 84 24 141t66 93t99 52.5t123 16.5q63 0 119.5 -16.5t99.5 -53.5t67.5 -94t24.5 -139v-54h-180v54q0 66 -39 99.5t-92 33.5q-55 0 -93 -34t-38 -99v-682q0 -63 37.5 -97t93.5 -34q53 0 92 32.5t39 98.5v20l180 59v-79q0 -80 -24.5 -138.5t-67.5 -96.5 t-99.5 -57.5t-119.5 -19.5q-66 0 -123 20.5t-99 60.5t-66 97.5t-24 133.5z" />
<glyph unicode="d" horiz-adv-x="737" d="M43 297v668q0 139 70.5 221t203.5 82q66 0 109 -17.5t59 -42.5v402l183 59v-1669h-121l-41 59q-10 -29 -59.5 -58.5t-135.5 -29.5q-125 0 -196.5 88t-71.5 238zM223 283q0 -66 38 -98.5t95 -32.5q53 0 91 32.5t38 98.5v682q0 66 -37.5 99.5t-91.5 33.5q-57 0 -95 -33 t-38 -100v-682z" />
<glyph unicode="e" d="M61 283v682q0 74 24 130t66 95t99 58.5t123 19.5q63 0 119.5 -21.5t99.5 -63.5t67.5 -102.5t24.5 -140.5q0 -127 -25.5 -213t-79 -151.5t-137.5 -119t-200 -112.5v-61q0 -63 33.5 -97t91.5 -34q53 0 87.5 33.5t34.5 97.5v20l183 59v-79q0 -74 -23.5 -132.5t-64.5 -98.5 t-97.5 -60.5t-119.5 -20.5q-66 0 -121.5 20.5t-96 60.5t-64.5 98.5t-24 132.5zM242 543q82 39 133 76.5t79.5 83t39 100.5t10.5 127q0 94 -39 131t-92 37q-55 0 -93 -34t-38 -99v-422z" />
<glyph unicode="f" horiz-adv-x="602" d="M45 1092v159h80v107q0 74 24.5 132t67.5 98t100.5 60.5t120.5 20.5q74 0 144 -29l-72 -174q-29 23 -72 23q-55 0 -94 -33t-39 -98v-107h133v-159h-133v-1092h-180v1092h-80z" />
<glyph unicode="g" horiz-adv-x="868" d="M33 -100q0 92 54 155.5t153 87.5q-33 10 -47.5 35t-14.5 55q0 29 23.5 59t77.5 42q-164 84 -164 274v357q0 141 80.5 222t220.5 81q72 0 119 -9.5t69 -21.5h223l-88 -137v-492q0 -129 -67.5 -204.5t-222.5 -90.5q-72 -6 -92.5 -32.5t-20.5 -55.5q0 -18 13 -41.5t44 -27.5 h391l-100 -181h-367q-108 0 -108 -72q0 -40 27.5 -57.5t68.5 -17.5h330l-98 -178h-236q-129 0 -198.5 67.5t-69.5 182.5zM291 604q0 -66 40 -98.5t95 -32.5q53 0 94 33t41 98v365q0 70 -41 101.5t-94 31.5q-55 0 -95 -32t-40 -101v-365z" />
<glyph unicode="h" horiz-adv-x="761" d="M61 0v1610l181 59v-448q27 27 70.5 37t97.5 10q59 0 112 -20.5t93 -58.5t63.5 -94.5t23.5 -129.5v-965h-180v965q0 72 -43 102.5t-98 30.5t-97 -31t-42 -102v-965h-181z" />
<glyph unicode="i" horiz-adv-x="307" d="M61 0v1251h181v-1251h-181zM61 1559q0 43 27 76.5t68 33.5t66.5 -32.5t25.5 -77.5q-2 -47 -26.5 -80t-65.5 -33t-68 32.5t-27 80.5z" />
<glyph unicode="j" horiz-adv-x="358" d="M-147 -348l47 182q33 -27 77 -27q55 0 93.5 34t38.5 100v1310h180v-1310q0 -66 -22.5 -122.5t-62.5 -99.5t-98.5 -67.5t-128.5 -24.5q-74 0 -124 25zM109 1559q0 43 26.5 76.5t67.5 33.5t67.5 -32.5t26.5 -77.5q0 -47 -26.5 -80t-67.5 -33t-67.5 32.5t-26.5 80.5z" />
<glyph unicode="k" horiz-adv-x="745" d="M68 0v1610l180 59v-788l235 370h199l-299 -467l336 -784h-209l-262 668v-668h-180z" />
<glyph unicode="l" horiz-adv-x="319" d="M68 0v1610l180 59v-1669h-180z" />
<glyph unicode="m" horiz-adv-x="1148" d="M68 0v1251h118l41 -59q53 76 160 76q82 0 127 -33t64 -90q29 59 79 91t158 32q55 0 103.5 -21.5t84 -60.5t57 -94.5t21.5 -122.5v-969h-180v965q0 66 -31.5 99.5t-87.5 33.5q-55 0 -85.5 -34t-30.5 -99v-965h-183v965q0 66 -31.5 99.5t-84.5 33.5q-119 0 -119 -133v-965 h-180z" />
<glyph unicode="n" horiz-adv-x="778" d="M68 0v1251h118l41 -59q31 35 76 55.5t121 20.5q129 0 208 -81t79 -216v-971h-181v965q0 66 -43 99.5t-98 33.5q-53 0 -97 -34t-44 -99v-965h-180z" />
<glyph unicode="o" horiz-adv-x="747" d="M61 283v682q0 70 24 126t66 96t99 60.5t123 20.5q63 0 119.5 -20.5t99.5 -60.5t67.5 -96.5t24.5 -125.5v-682q0 -72 -24.5 -130.5t-67.5 -98.5t-99.5 -61.5t-119.5 -21.5q-66 0 -123 21.5t-99 61.5t-66 98.5t-24 130.5zM242 283q0 -63 37.5 -97t93.5 -34q53 0 92 33.5 t39 97.5v682q0 66 -39 99.5t-92 33.5q-55 0 -93 -34t-38 -99v-682z" />
<glyph unicode="p" horiz-adv-x="737" d="M68 -350v1601h118l41 -59q29 29 73 52.5t112 23.5q135 0 206.5 -81t71.5 -220v-684q0 -82 -22.5 -140.5t-60.5 -96.5t-87 -56.5t-100 -18.5q-61 0 -102.5 19.5t-69.5 50.5v-391h-180zM248 283q0 -66 38 -98.5t93 -32.5t93 32.5t38 98.5v682q0 61 -38 97t-93 36t-93 -36 t-38 -97v-682z" />
<glyph unicode="q" horiz-adv-x="737" d="M43 283v682q0 74 24.5 130t65.5 94t94.5 58.5t110.5 20.5q68 0 106.5 -23.5t61.5 -52.5l41 59h121v-1601h-183v391q-6 -12 -23.5 -24.5t-39 -22.5t-47 -16.5t-45.5 -6.5q-150 0 -218.5 88t-68.5 224zM223 283q0 -59 38 -95t95 -36q53 0 91 34.5t38 96.5v682 q0 66 -37.5 99.5t-91.5 33.5q-57 0 -95 -34t-38 -99v-682z" />
<glyph unicode="r" horiz-adv-x="493" d="M68 0v1251h118l41 -80q16 33 54.5 65t97.5 32q72 0 106 -35l-61 -162q-14 16 -55 16q-47 0 -84 -39.5t-37 -101.5v-946h-180z" />
<glyph unicode="s" horiz-adv-x="743" d="M55 283v86l181 -39v-47q0 -59 36.5 -95t96.5 -36q139 0 139 131q0 49 -12.5 82.5t-34.5 62.5q-33 37 -70 67.5t-74.5 61.5t-74.5 63.5t-70 71.5q-45 53 -72.5 119t-27.5 152q0 68 22.5 124t63.5 96t97 62.5t124 22.5q141 0 217 -84t76 -219v-86l-176 41v45q0 61 -34 97 t-89 36q-57 0 -89 -37t-32 -100q0 -72 45 -129.5t108.5 -110.5t130 -109.5t109.5 -126.5q23 -37 35 -81t12 -89q0 -68 -19.5 -129t-59.5 -109t-100 -77t-144 -29q-70 0 -127.5 22.5t-99.5 63.5t-64.5 98.5t-22.5 127.5z" />
<glyph unicode="t" horiz-adv-x="667" d="M41 1092v159h115v228l180 61v-289h237v-159h-237v-811q0 -129 92 -129q57 0 82 41l125 -136q-35 -41 -90.5 -63.5t-108.5 -22.5q-141 0 -210.5 79t-69.5 231v811h-115z" />
<glyph unicode="u" horiz-adv-x="749" d="M66 303v948h180v-968q0 -63 35.5 -97t91.5 -34q53 0 90 31.5t37 99.5v968h180v-1251h-119l-41 59q-18 -27 -60 -57.5t-130 -30.5q-123 0 -193.5 86t-70.5 246z" />
<glyph unicode="v" horiz-adv-x="665" d="M20 1251h205l117 -786l117 786h186l-231 -1251h-168z" />
<glyph unicode="w" horiz-adv-x="1052" d="M20 1251h201l96 -790l138 790h153l137 -790l97 790h190l-221 -1251h-166l-121 745l-123 -745h-165z" />
<glyph unicode="x" horiz-adv-x="815" d="M59 0l254 653l-233 598h205l129 -389l127 389h192l-231 -610l256 -641h-209l-150 438l-145 -438h-195z" />
<glyph unicode="y" horiz-adv-x="739" d="M45 274v977h180v-968q0 -66 38 -98.5t95 -32.5q53 0 91 32.5t38 98.5v968h183v-1601h-183v389q-14 -23 -50 -45.5t-113 -22.5q-51 0 -101.5 16.5t-89.5 52.5t-63.5 93t-24.5 141z" />
<glyph unicode="z" horiz-adv-x="710" d="M66 0v141l383 918h-377v192h573v-141l-375 -917h375v-193h-579z" />
<glyph unicode="{" horiz-adv-x="559" d="M41 770v129q43 4 67.5 20.5t37 47t15.5 73.5t3 103v330q0 92 30.5 154.5t80 101t110.5 56t123 17.5h20v-125h-32q-98 0 -152.5 -59t-54.5 -176v-307q0 -68 -5 -121t-23.5 -90t-53.5 -59.5t-94 -30.5v-3q59 -10 94 -34.5t53.5 -63.5t23.5 -89t5 -109v-238q0 -92 11 -153.5 t36.5 -98.5t69 -53.5t104.5 -16.5h18v-129h-16q-63 0 -125.5 14.5t-112 56.5t-80 114.5t-30.5 189.5v307q0 68 -5 113t-18.5 72.5t-37 41t-62.5 15.5z" />
<glyph unicode="|" horiz-adv-x="358" d="M115 -170v1892h129v-1892h-129z" />
<glyph unicode="}" horiz-adv-x="559" d="M33 -25h18q61 0 104.5 16.5t69 53.5t36.5 98.5t11 153.5v238q0 59 5.5 109t23.5 89t53 63.5t95 34.5v3q-59 8 -94.5 30.5t-53.5 59.5t-23.5 90t-5.5 121v307q0 117 -54 176t-152 59h-33v125h20q61 0 123 -17.5t111 -56t79.5 -101t30.5 -154.5v-330q0 -59 3 -102.5 t15.5 -74t37 -47t67.5 -20.5v-129q-39 -2 -62.5 -15.5t-36.5 -41t-18.5 -72.5t-5.5 -113v-307q0 -117 -30.5 -189.5t-79.5 -114.5t-111.5 -56.5t-126.5 -14.5h-16v129z" />
<glyph unicode="~" horiz-adv-x="704" d="M47 549v229q27 61 66 96t86 35q49 0 88 -19.5t72.5 -43t66.5 -43t68 -19.5q57 0 94 52.5t69 136.5v-230q-35 -76 -75.5 -104.5t-100.5 -28.5q-31 0 -65.5 19.5t-70.5 42t-71.5 42t-68.5 19.5q-51 0 -89 -56t-69 -128z" />
<glyph unicode="&#xad;" horiz-adv-x="655" d="M68 725v158h516v-158h-516z" />
<glyph unicode="&#x100;" horiz-adv-x="739" d="M43 0l246 1604h166l241 -1604h-182l-27 199h-227l-24 -199h-193zM53 1786v137h639v-137h-639zM281 367h186l-92 702z" />
<glyph unicode="&#x101;" d="M49 299q0 92 24.5 162.5t63.5 126t88 99.5t98.5 80t94.5 68.5t78 67.5v62q0 59 -26 96t-81 37q-104 0 -133 -84l-152 98q20 31 44 59.5t58 50t79 34t106 12.5q129 0 207 -80t78 -223v-965h-119l-41 72q-23 -41 -70 -71t-124 -30q-49 0 -98.5 18.5t-88.5 58.5t-62.5 101.5 t-23.5 149.5zM74 1434v137h639v-137h-639zM225 315q0 -78 35 -120.5t100 -42.5q72 0 106 49t34 114v355q-35 -23 -82 -54.5t-90 -75.5t-73 -99.5t-30 -125.5z" />
<glyph unicode="&#x102;" horiz-adv-x="739" d="M43 0l246 1604h166l241 -1604h-182l-27 199h-227l-24 -199h-193zM105 2021h108q6 -63 20.5 -102t36 -60.5t48 -30t53.5 -8.5q29 0 55.5 8.5t48 30t37 60.5t21.5 102h108q-4 -61 -20 -119.5t-49 -103.5t-82 -72.5t-119 -27.5q-68 0 -117 27.5t-80.5 72.5t-49 103.5 t-19.5 119.5zM281 367h186l-92 702z" />
<glyph unicode="&#x103;" d="M49 299q0 92 24.5 162.5t63.5 126t88 99.5t98.5 80t94.5 68.5t78 67.5v62q0 59 -26 96t-81 37q-104 0 -133 -84l-152 98q20 31 44 59.5t58 50t79 34t106 12.5q129 0 207 -80t78 -223v-965h-119l-41 72q-23 -41 -70 -71t-124 -30q-49 0 -98.5 18.5t-88.5 58.5t-62.5 101.5 t-23.5 149.5zM123 1669h108q6 -63 20.5 -102t36 -60.5t48 -30t53.5 -8.5q29 0 55.5 8.5t48 30t37 60.5t21.5 102h108q-4 -61 -20 -119.5t-49 -103.5t-82 -72.5t-119 -27.5q-68 0 -117 27.5t-80.5 72.5t-49 103.5t-19.5 119.5zM225 315q0 -78 35 -120.5t100 -42.5 q72 0 106 49t34 114v355q-35 -23 -82 -54.5t-90 -75.5t-73 -99.5t-30 -125.5z" />
<glyph unicode="&#x104;" horiz-adv-x="739" d="M43 0l246 1604h166l241 -1604l-170 -82q-41 -20 -57 -46t-16 -48q0 -31 23.5 -53.5t60.5 -22.5q29 0 50 12.5t31 30.5l125 -135q-35 -41 -90 -63.5t-108 -22.5q-70 0 -119 18.5t-80 49t-44 70.5t-13 81q0 49 32.5 96t104.5 70l92 31l-31 213h-227l-24 -199h-193zM281 367 h186l-92 702z" />
<glyph unicode="&#x105;" d="M49 276q0 145 52.5 242.5t124 165.5t147.5 118t123 101v62q0 55 -27 94t-82 39q-102 0 -127 -90l-156 104q14 31 41 60.5t63 53t81 38t98 14.5q63 0 116.5 -24.5t92.5 -67.5t59.5 -100.5t20.5 -120.5v-965l-170 -82q-39 -20 -56.5 -46t-17.5 -48q0 -31 24.5 -53.5 t59.5 -22.5q29 0 50.5 12.5t31.5 30.5l125 -135q-35 -41 -90 -63.5t-109 -22.5q-70 0 -118 18.5t-78.5 49t-44 70.5t-13.5 81q0 49 32 96t104 70l147 51l-37 66q-23 -41 -68 -64.5t-122 -23.5q-49 0 -99.5 19.5t-89.5 57t-63.5 92t-24.5 123.5zM229 297q0 -55 38 -94t95 -39 q27 0 51.5 13t43 34.5t29 48.5t10.5 55v355q-35 -23 -80 -54.5t-87 -77.5t-71 -105.5t-29 -135.5z" />
<glyph unicode="&#x106;" d="M63 283v1036q0 80 25 138.5t68 97t99 57t120 18.5q66 0 122 -22.5t98 -62.5t66.5 -98t24.5 -128v-53h-180v53q0 68 -39 99.5t-92 31.5q-55 0 -93 -32t-38 -99v-1036q0 -55 37.5 -93t93.5 -38q53 0 92 37.5t39 93.5v20l180 59v-79q0 -74 -24.5 -132.5t-66.5 -98.5 t-98.5 -60.5t-121.5 -20.5q-63 0 -119.5 20.5t-99.5 60.5t-68 98.5t-25 132.5zM250 1698l190 323h170l-248 -323h-112z" />
<glyph unicode="&#x107;" horiz-adv-x="739" d="M61 283v682q0 84 24 141t66 93t99 52.5t123 16.5q63 0 119.5 -16.5t99.5 -53.5t67.5 -94t24.5 -139v-54h-180v54q0 66 -39 99.5t-92 33.5q-55 0 -93 -34t-38 -99v-682q0 -63 37.5 -97t93.5 -34q53 0 92 32.5t39 98.5v20l180 59v-79q0 -80 -24.5 -138.5t-67.5 -96.5 t-99.5 -57.5t-119.5 -19.5q-66 0 -123 20.5t-99 60.5t-66 97.5t-24 133.5zM250 1346l190 323h170l-248 -323h-112z" />
<glyph unicode="&#x10a;" d="M63 283v1036q0 80 25 138.5t68 97t99 57t120 18.5q66 0 122 -22.5t98 -62.5t66.5 -98t24.5 -128v-53h-180v53q0 68 -39 99.5t-92 31.5q-55 0 -93 -32t-38 -99v-1036q0 -55 37.5 -93t93.5 -38q53 0 92 37.5t39 93.5v20l180 59v-79q0 -74 -24.5 -132.5t-66.5 -98.5 t-98.5 -60.5t-121.5 -20.5q-63 0 -119.5 20.5t-99.5 60.5t-68 98.5t-25 132.5zM277 1911q0 43 26.5 76.5t67.5 33.5t66.5 -32.5t25.5 -77.5q-2 -47 -26.5 -80t-65.5 -33t-67.5 32.5t-26.5 80.5z" />
<glyph unicode="&#x10b;" horiz-adv-x="739" d="M61 283v682q0 84 24 141t66 93t99 52.5t123 16.5q63 0 119.5 -16.5t99.5 -53.5t67.5 -94t24.5 -139v-54h-180v54q0 66 -39 99.5t-92 33.5q-55 0 -93 -34t-38 -99v-682q0 -63 37.5 -97t93.5 -34q53 0 92 32.5t39 98.5v20l180 59v-79q0 -80 -24.5 -138.5t-67.5 -96.5 t-99.5 -57.5t-119.5 -19.5q-66 0 -123 20.5t-99 60.5t-66 97.5t-24 133.5zM275 1559q0 43 26.5 76.5t67.5 33.5t66.5 -32.5t25.5 -77.5q-2 -47 -26.5 -80t-65.5 -33t-67.5 32.5t-26.5 80.5z" />
<glyph unicode="&#x10c;" d="M63 283v1036q0 80 25 138.5t68 97t99 57t120 18.5q66 0 122 -22.5t98 -62.5t66.5 -98t24.5 -128v-53h-180v53q0 68 -39 99.5t-92 31.5q-55 0 -93 -32t-38 -99v-1036q0 -55 37.5 -93t93.5 -38q53 0 92 37.5t39 93.5v20l180 59v-79q0 -74 -24.5 -132.5t-66.5 -98.5 t-98.5 -60.5t-121.5 -20.5q-63 0 -119.5 20.5t-99.5 60.5t-68 98.5t-25 132.5zM68 2021h172l135 -219l135 219h170l-223 -323h-162z" />
<glyph unicode="&#x10d;" horiz-adv-x="739" d="M61 283v682q0 84 24 141t66 93t99 52.5t123 16.5q63 0 119.5 -16.5t99.5 -53.5t67.5 -94t24.5 -139v-54h-180v54q0 66 -39 99.5t-92 33.5q-55 0 -93 -34t-38 -99v-682q0 -63 37.5 -97t93.5 -34q53 0 92 32.5t39 98.5v20l180 59v-79q0 -80 -24.5 -138.5t-67.5 -96.5 t-99.5 -57.5t-119.5 -19.5q-66 0 -123 20.5t-99 60.5t-66 97.5t-24 133.5zM68 1669h172l135 -219l135 219h170l-223 -323h-162z" />
<glyph unicode="&#x10e;" horiz-adv-x="757" d="M35 2021h172l135 -219l135 219h170l-223 -323h-162zM68 0v1604h311q72 0 130 -24t98 -65.5t61.5 -99t21.5 -125.5v-977q0 -66 -21.5 -123t-61.5 -99t-98 -66.5t-130 -24.5h-311zM248 180h131q55 0 93 39t38 94v977q0 63 -38 98t-93 35h-131v-1243z" />
<glyph unicode="&#x10f;" horiz-adv-x="937" d="M43 297v668q0 139 70.5 221t203.5 82q66 0 109 -17.5t59 -42.5v402l183 59v-1669h-121l-41 59q-10 -29 -59.5 -58.5t-135.5 -29.5q-125 0 -196.5 88t-71.5 238zM223 283q0 -66 38 -98.5t95 -32.5q53 0 91 32.5t38 98.5v682q0 66 -37.5 99.5t-91.5 33.5q-57 0 -95 -33 t-38 -100v-682zM717 1092l18 464q2 59 28 86t58 27q35 0 66 -29.5t31 -83.5q0 -31 -13 -63l-137 -401h-51z" />
<glyph unicode="&#x110;" horiz-adv-x="757" d="M-39 725v158h107v721h311q66 0 122 -25t98 -68t66.5 -100t24.5 -121v-977q0 -66 -24.5 -123t-66.5 -99t-98.5 -66.5t-121.5 -24.5h-311v725h-107zM248 180h131q55 0 93 39t38 94v977q0 55 -38 94t-93 39h-131v-540h131v-158h-131v-545z" />
<glyph unicode="&#x111;" horiz-adv-x="737" d="M43 303v662q0 63 18.5 120.5t53.5 100.5t86 67.5t116 24.5q66 0 109 -22.5t59 -47.5v164h-385v139h385v99l183 59v-158h71v-139h-71v-1372h-121l-41 59q-10 -23 -57.5 -45t-118.5 -22q-63 0 -115.5 24.5t-90.5 66.5t-59.5 98.5t-21.5 121.5zM223 303q0 -55 38 -93t95 -38 q53 0 91 38t38 93v662q0 55 -37.5 94t-91.5 39q-57 0 -95 -39t-38 -94v-662z" />
<glyph unicode="&#x112;" horiz-adv-x="645" d="M27 1786v137h639v-137h-639zM68 0v1604h530v-181h-350v-508h203v-180h-203v-555h350v-180h-530z" />
<glyph unicode="&#x113;" d="M55 1434v137h639v-137h-639zM61 283v682q0 74 24 130t66 95t99 58.5t123 19.5q63 0 119.5 -21.5t99.5 -63.5t67.5 -102.5t24.5 -140.5q0 -127 -25.5 -213t-79 -151.5t-137.5 -119t-200 -112.5v-61q0 -63 33.5 -97t91.5 -34q53 0 87.5 33.5t34.5 97.5v20l183 59v-79 q0 -74 -23.5 -132.5t-64.5 -98.5t-97.5 -60.5t-119.5 -20.5q-66 0 -121.5 20.5t-96 60.5t-64.5 98.5t-24 132.5zM242 543q82 39 133 76.5t79.5 83t39 100.5t10.5 127q0 94 -39 131t-92 37q-55 0 -93 -34t-38 -99v-422z" />
<glyph unicode="&#x114;" horiz-adv-x="645" d="M68 0v1604h530v-181h-350v-508h203v-180h-203v-555h350v-180h-530zM76 2021h108q6 -63 20.5 -102t36 -60.5t48 -30t53.5 -8.5q29 0 55.5 8.5t48 30t37 60.5t21.5 102h108q-4 -61 -20 -119.5t-49 -103.5t-82 -72.5t-119 -27.5q-68 0 -117 27.5t-80.5 72.5t-49 103.5 t-19.5 119.5z" />
<glyph unicode="&#x115;" d="M61 283v682q0 74 24 130t66 95t99 58.5t123 19.5q63 0 119.5 -21.5t99.5 -63.5t67.5 -102.5t24.5 -140.5q0 -127 -25.5 -213t-79 -151.5t-137.5 -119t-200 -112.5v-61q0 -63 33.5 -97t91.5 -34q53 0 87.5 33.5t34.5 97.5v20l183 59v-79q0 -74 -23.5 -132.5t-64.5 -98.5 t-97.5 -60.5t-119.5 -20.5q-66 0 -121.5 20.5t-96 60.5t-64.5 98.5t-24 132.5zM105 1669h108q6 -63 20.5 -102t36 -60.5t48 -30t53.5 -8.5q29 0 55.5 8.5t48 30t37 60.5t21.5 102h108q-4 -61 -20 -119.5t-49 -103.5t-82 -72.5t-119 -27.5q-68 0 -117 27.5t-80.5 72.5 t-49 103.5t-19.5 119.5zM242 543q82 39 133 76.5t79.5 83t39 100.5t10.5 127q0 94 -39 131t-92 37q-55 0 -93 -34t-38 -99v-422z" />
<glyph unicode="&#x116;" horiz-adv-x="645" d="M68 0v1604h530v-181h-350v-508h203v-180h-203v-555h350v-180h-530zM250 1911q0 43 26.5 76.5t67.5 33.5t66.5 -32.5t25.5 -77.5q-2 -47 -26.5 -80t-65.5 -33t-67.5 32.5t-26.5 80.5z" />
<glyph unicode="&#x117;" d="M61 283v682q0 74 24 130t66 95t99 58.5t123 19.5q63 0 119.5 -21.5t99.5 -63.5t67.5 -102.5t24.5 -140.5q0 -127 -25.5 -213t-79 -151.5t-137.5 -119t-200 -112.5v-61q0 -63 33.5 -97t91.5 -34q53 0 87.5 33.5t34.5 97.5v20l183 59v-79q0 -74 -23.5 -132.5t-64.5 -98.5 t-97.5 -60.5t-119.5 -20.5q-66 0 -121.5 20.5t-96 60.5t-64.5 98.5t-24 132.5zM242 543q82 39 133 76.5t79.5 83t39 100.5t10.5 127q0 94 -39 131t-92 37q-55 0 -93 -34t-38 -99v-422zM277 1559q0 43 26.5 76.5t67.5 33.5t66.5 -32.5t25.5 -77.5q-2 -47 -26.5 -80t-65.5 -33 t-67.5 32.5t-26.5 80.5z" />
<glyph unicode="&#x118;" horiz-adv-x="645" d="M68 0v1604h530v-181h-350v-508h203v-180h-203v-555h350v-180l-170 -82q-41 -20 -57.5 -46t-16.5 -48q0 -31 23.5 -53.5t60.5 -22.5q29 0 50.5 12.5t31.5 30.5l125 -135q-35 -41 -90 -63.5t-109 -22.5q-70 0 -118.5 18.5t-79.5 49t-44.5 70.5t-13.5 81q0 49 33 96t105 70 l135 45h-395z" />
<glyph unicode="&#x119;" d="M61 283v682q0 63 24 120.5t66 100.5t99 67.5t123 24.5q63 0 119.5 -23.5t99.5 -66.5t67.5 -105.5t24.5 -142.5q0 -127 -25.5 -213t-79 -151.5t-137.5 -119t-200 -112.5v-61q0 -55 33.5 -93t91.5 -38q53 0 87.5 37.5t34.5 93.5v20l183 59v-79q0 -98 -53.5 -172 t-135.5 -115l-159 -78q-39 -20 -56.5 -46t-17.5 -48q0 -31 23.5 -53.5t60.5 -22.5q29 0 50.5 12.5t31.5 30.5l125 -135q-35 -41 -90.5 -63.5t-108.5 -22.5q-70 0 -119 18.5t-79.5 49t-44 70.5t-13.5 81q0 49 33 96t104 70l72 25q-51 12 -94 39.5t-74 67.5t-48.5 90 t-17.5 106zM242 551q82 39 133 81t79.5 88t39 98.5t10.5 111.5q0 94 -39 131t-92 37q-55 0 -93 -39t-38 -94v-414z" />
<glyph unicode="&#x11a;" horiz-adv-x="645" d="M39 2021h172l135 -219l135 219h170l-223 -323h-162zM68 0v1604h530v-181h-350v-508h203v-180h-203v-555h350v-180h-530z" />
<glyph unicode="&#x11b;" d="M61 283v682q0 74 24 130t66 95t99 58.5t123 19.5q63 0 119.5 -21.5t99.5 -63.5t67.5 -102.5t24.5 -140.5q0 -127 -25.5 -213t-79 -151.5t-137.5 -119t-200 -112.5v-61q0 -63 33.5 -97t91.5 -34q53 0 87.5 33.5t34.5 97.5v20l183 59v-79q0 -74 -23.5 -132.5t-64.5 -98.5 t-97.5 -60.5t-119.5 -20.5q-66 0 -121.5 20.5t-96 60.5t-64.5 98.5t-24 132.5zM68 1669h172l135 -219l135 219h170l-223 -323h-162zM242 543q82 39 133 76.5t79.5 83t39 100.5t10.5 127q0 94 -39 131t-92 37q-55 0 -93 -34t-38 -99v-422z" />
<glyph unicode="&#x11e;" horiz-adv-x="765" d="M63 283v1036q0 74 25 131t68 97t99 61.5t120 21.5q66 0 122 -21.5t98 -62.5t66.5 -98t24.5 -129v-53h-180v53q0 70 -39 100.5t-92 30.5q-55 0 -93 -33t-38 -98v-1036q0 -55 42 -93t97 -38t97 37.5t42 93.5v436h-149v166h329v-885h-120l-19 68q-33 -47 -80 -72t-123 -25 q-55 0 -108 18.5t-95 57.5t-68 97.5t-26 138.5zM117 2021h108q6 -63 20.5 -102t36 -60.5t48 -30t53.5 -8.5q29 0 55.5 8.5t48 30t37 60.5t21.5 102h108q-4 -61 -20 -119.5t-49 -103.5t-82 -72.5t-119 -27.5q-68 0 -117 27.5t-80.5 72.5t-49 103.5t-19.5 119.5z" />
<glyph unicode="&#x11f;" horiz-adv-x="868" d="M33 -100q0 92 54 155.5t153 87.5q-33 10 -47.5 35t-14.5 55q0 29 23.5 59t77.5 42q-164 84 -164 274v357q0 141 80.5 222t220.5 81q72 0 119 -9.5t69 -21.5h223l-88 -137v-492q0 -129 -67.5 -204.5t-222.5 -90.5q-72 -6 -92.5 -32.5t-20.5 -55.5q0 -18 13 -41.5t44 -27.5 h391l-100 -181h-367q-109 0 -108 -73q0 -39 27.5 -56.5t68.5 -17.5h330l-98 -178h-236q-129 0 -198.5 67.5t-69.5 182.5zM154 1669h108q6 -63 20.5 -102t36 -60.5t48 -30t53.5 -8.5q29 0 55.5 8.5t48 30t37 60.5t21.5 102h108q-4 -61 -20 -119.5t-49 -103.5t-82 -72.5 t-119 -27.5q-68 0 -117 27.5t-80.5 72.5t-49 103.5t-19.5 119.5zM291 604q0 -66 40 -98.5t95 -32.5q53 0 94 33t41 98v365q0 70 -41 101.5t-94 31.5q-55 0 -95 -32t-40 -101v-365z" />
<glyph unicode="&#x120;" horiz-adv-x="765" d="M63 283v1036q0 74 25 131t68 97t99 61.5t120 21.5q66 0 122 -21.5t98 -62.5t66.5 -98t24.5 -129v-53h-180v53q0 70 -39 100.5t-92 30.5q-55 0 -93 -33t-38 -98v-1036q0 -55 42 -93t97 -38t97 37.5t42 93.5v436h-149v166h329v-885h-120l-19 68q-33 -47 -80 -72t-123 -25 q-55 0 -108 18.5t-95 57.5t-68 97.5t-26 138.5zM289 1911q0 43 26.5 76.5t67.5 33.5t66.5 -32.5t25.5 -77.5q-2 -47 -26.5 -80t-65.5 -33t-67.5 32.5t-26.5 80.5z" />
<glyph unicode="&#x121;" horiz-adv-x="868" d="M33 -100q0 92 54 155.5t153 87.5q-33 10 -47.5 35t-14.5 55q0 29 23.5 59t77.5 42q-164 84 -164 274v357q0 141 80.5 222t220.5 81q72 0 119 -9.5t69 -21.5h223l-88 -137v-492q0 -129 -67.5 -204.5t-222.5 -90.5q-72 -6 -92.5 -32.5t-20.5 -55.5q0 -18 13 -41.5t44 -27.5 h391l-100 -181h-367q-109 0 -108 -73q0 -39 27.5 -56.5t68.5 -17.5h330l-98 -178h-236q-129 0 -198.5 67.5t-69.5 182.5zM291 604q0 -66 40 -98.5t95 -32.5q53 0 94 33t41 98v365q0 70 -41 101.5t-94 31.5q-55 0 -95 -32t-40 -101v-365zM330 1559q0 43 26.5 76.5t67.5 33.5 t66.5 -32.5t25.5 -77.5q-2 -47 -26.5 -80t-65.5 -33t-67.5 32.5t-26.5 80.5z" />
<glyph unicode="&#x122;" horiz-adv-x="765" d="M63 283v1036q0 74 25 131t68 97t99 61.5t120 21.5q66 0 122 -21.5t98 -62.5t66.5 -98t24.5 -129v-53h-180v53q0 70 -39 100.5t-92 30.5q-55 0 -93 -33t-38 -98v-1036q0 -55 42 -93t97 -38t97 37.5t42 93.5v436h-149v166h329v-885h-120l-19 68q-33 -47 -80 -72t-123 -25 q-55 0 -108 18.5t-95 57.5t-68 97.5t-26 138.5zM307 -350l10 215q2 47 22.5 67.5t43.5 20.5q29 0 52 -15.5t23 -56.5q0 -45 -18 -88l-57 -143h-76z" />
<glyph unicode="&#x123;" horiz-adv-x="868" d="M33 -100q0 92 54 155.5t153 87.5q-33 10 -47.5 35t-14.5 55q0 29 23.5 59t77.5 42q-164 84 -164 274v357q0 141 80.5 222t220.5 81q72 0 119 -9.5t69 -21.5h223l-88 -137v-492q0 -129 -67.5 -204.5t-222.5 -90.5q-72 -6 -92.5 -32.5t-20.5 -55.5q0 -18 13 -41.5t44 -27.5 h391l-100 -181h-367q-109 0 -108 -73q0 -39 27.5 -56.5t68.5 -17.5h330l-98 -178h-236q-129 0 -198.5 67.5t-69.5 182.5zM291 604q0 -66 40 -98.5t95 -32.5q53 0 94 33t41 98v365q0 70 -41 101.5t-94 31.5q-55 0 -95 -32t-40 -101v-365zM344 1458q0 45 18 88l57 143h76 l-10 -215q-2 -47 -22.5 -67.5t-43.5 -20.5q-29 0 -52 15.5t-23 56.5z" />
<glyph unicode="&#x126;" horiz-adv-x="761" d="M68 0v1604h180v-287h262v287h180v-1604h-180v723h-262v-723h-180zM248 903h262v275h-262v-275z" />
<glyph unicode="&#x127;" horiz-adv-x="761" d="M-20 1372v139h81v99l181 59v-158h376v-139h-376v-143q18 20 57 34.5t98 14.5q63 0 118.5 -21.5t97.5 -62.5t65.5 -98.5t23.5 -130.5v-965h-180v965q0 55 -43 94t-98 39t-97 -39t-42 -94v-965h-181v1372h-81z" />
<glyph unicode="&#x12a;" horiz-adv-x="319" d="M-155 1786v137h639v-137h-639zM68 0v1604h180v-1604h-180z" />
<glyph unicode="&#x12b;" horiz-adv-x="518" d="M23 1434v137h511v-137h-511zM164 0v1251h180v-1251h-180z" />
<glyph unicode="&#x12c;" horiz-adv-x="319" d="M-106 2021h108q6 -63 20.5 -102t36 -60.5t48 -30t53.5 -8.5q29 0 55.5 8.5t48 30t37 60.5t21.5 102h108q-4 -61 -20 -119.5t-49 -103.5t-82 -72.5t-119 -27.5q-68 0 -117 27.5t-80.5 72.5t-49 103.5t-19.5 119.5zM68 0v1604h180v-1604h-180z" />
<glyph unicode="&#x12d;" horiz-adv-x="491" d="M-20 1669h108q6 -63 20.5 -102t36 -60.5t48 -30t53.5 -8.5q29 0 55.5 8.5t48 30t37 60.5t21.5 102h108q-4 -61 -20 -119.5t-49 -103.5t-82 -72.5t-119 -27.5q-68 0 -117 27.5t-80.5 72.5t-49 103.5t-19.5 119.5zM154 0v1251h180v-1251h-180z" />
<glyph unicode="&#x12e;" horiz-adv-x="319" d="M-160 -211q0 49 32 96t103 70l93 31v1618h180v-1604l-172 -82q-39 -20 -56.5 -46t-17.5 -48q0 -31 24.5 -53.5t59.5 -22.5q29 0 51.5 12.5t32.5 30.5l123 -135q-35 -41 -89 -63.5t-110 -22.5q-70 0 -118 18.5t-78.5 49t-44 70.5t-13.5 81z" />
<glyph unicode="&#x12f;" horiz-adv-x="307" d="M-166 -211q0 49 32 96t103 70l92 31v1265h181v-1251l-170 -82q-41 -20 -58.5 -46t-17.5 -48q0 -31 24.5 -53.5t59.5 -22.5q29 0 51.5 12.5t32.5 30.5l123 -135q-35 -41 -89.5 -63.5t-109.5 -22.5q-70 0 -118 18.5t-78.5 49t-44 70.5t-13.5 81zM61 1559q0 43 27 76.5 t68 33.5t66.5 -32.5t25.5 -77.5q-2 -47 -26.5 -80t-65.5 -33t-68 32.5t-27 80.5z" />
<glyph unicode="&#x130;" horiz-adv-x="319" d="M68 0v1604h180v-1604h-180zM70 1911q0 43 26.5 76.5t67.5 33.5t66.5 -32.5t25.5 -77.5q-2 -47 -26.5 -80t-65.5 -33t-67.5 32.5t-26.5 80.5z" />
<glyph unicode="&#x131;" horiz-adv-x="319" d="M68 0v1251h180v-1251h-180z" />
<glyph unicode="&#x132;" horiz-adv-x="995" d="M68 0v1604h180v-1604h-180zM304 283v79l180 -59v-20q0 -55 31.5 -93t101.5 -38q55 0 93 32.5t38 116.5v1303h180v-1305q0 -90 -24.5 -152.5t-66.5 -101.5t-99.5 -56.5t-120.5 -17.5q-72 0 -129 24.5t-98 66.5t-63.5 98.5t-22.5 122.5z" />
<glyph unicode="&#x133;" horiz-adv-x="624" d="M61 0v1251h181v-1251h-181zM61 1559q0 43 27 76.5t68 33.5t66.5 -32.5t25.5 -77.5q-2 -47 -26.5 -80t-65.5 -33t-68 32.5t-27 80.5zM119 -348l47 182q33 -27 77 -27q55 0 93.5 34t38.5 100v1310h180v-1310q0 -66 -22.5 -122.5t-62.5 -99.5t-98.5 -67.5t-128.5 -24.5 q-74 0 -124 25zM375 1559q0 43 26.5 76.5t67.5 33.5t67.5 -32.5t26.5 -77.5q0 -47 -26.5 -80t-67.5 -33t-67.5 32.5t-26.5 80.5z" />
<glyph unicode="&#x136;" horiz-adv-x="802" d="M68 0v1604h180v-545l301 545h215l-377 -646l377 -958h-213l-303 815v-815h-180zM314 -350l10 215q2 47 22.5 67.5t43.5 20.5q29 0 52 -15.5t23 -56.5q0 -45 -18 -88l-57 -143h-76z" />
<glyph unicode="&#x137;" horiz-adv-x="745" d="M68 0v1610l180 59v-788l235 370h199l-299 -467l336 -784h-209l-262 668v-668h-180zM297 -350l10 215q2 47 22.5 67.5t43.5 20.5q29 0 52 -15.5t23 -56.5q0 -45 -18 -88l-57 -143h-76z" />
<glyph unicode="&#x139;" horiz-adv-x="581" d="M68 0v1604h180v-1424h309v-180h-489zM129 1698l190 323h170l-248 -323h-112z" />
<glyph unicode="&#x13a;" horiz-adv-x="319" d="M43 1698l190 323h170l-248 -323h-112zM68 0v1610l180 59v-1669h-180z" />
<glyph unicode="&#x13b;" horiz-adv-x="581" d="M68 0v1604h180v-1424h309v-180h-489zM215 -350l10 215q2 47 22.5 67.5t43.5 20.5q29 0 52 -15.5t23 -56.5q0 -45 -18 -88l-57 -143h-76z" />
<glyph unicode="&#x13c;" horiz-adv-x="319" d="M68 0v1610l180 59v-1669h-180zM86 -350l10 215q2 47 22.5 67.5t43.5 20.5q29 0 52 -15.5t23 -56.5q0 -45 -18 -88l-57 -143h-76z" />
<glyph unicode="&#x13d;" horiz-adv-x="581" d="M68 0v1604h180v-1424h309v-180h-489zM340 1092l18 464q2 59 28 86t58 27q35 0 66 -29.5t31 -83.5q0 -31 -13 -63l-137 -401h-51z" />
<glyph unicode="&#x13e;" horiz-adv-x="520" d="M68 0v1610l180 59v-1669h-180zM299 1092l18 464q2 59 28 86t58 27q35 0 66 -29.5t31 -83.5q0 -31 -13 -63l-137 -401h-51z" />
<glyph unicode="&#x13f;" horiz-adv-x="581" d="M68 0v1604h180v-1424h309v-180h-489zM297 838q0 43 26.5 76.5t67.5 33.5t66.5 -32.5t25.5 -77.5q-2 -47 -26.5 -80t-65.5 -33t-67.5 32.5t-26.5 80.5z" />
<glyph unicode="&#x140;" horiz-adv-x="516" d="M68 0v1610l180 59v-1669h-180zM307 871q0 43 26.5 76.5t67.5 33.5t66.5 -32.5t25.5 -77.5q-2 -47 -26.5 -80t-65.5 -33t-67.5 32.5t-26.5 80.5z" />
<glyph unicode="&#x141;" horiz-adv-x="659" d="M0 1030v158l145 49v367h181v-306l264 93v-158l-264 -92v-961h309v-180h-490v1077z" />
<glyph unicode="&#x142;" horiz-adv-x="524" d="M20 1049v157l148 60v344l180 59v-328l156 64v-158l-156 -65v-1182h-180v1108z" />
<glyph unicode="&#x143;" horiz-adv-x="761" d="M68 0v1604h180l274 -990v990h168v-1604h-160l-292 977v-977h-170zM260 1698l190 323h170l-248 -323h-112z" />
<glyph unicode="&#x144;" horiz-adv-x="778" d="M68 0v1251h118l41 -59q31 35 76 55.5t121 20.5q129 0 208 -81t79 -216v-971h-181v965q0 66 -43 99.5t-98 33.5q-53 0 -97 -34t-44 -99v-965h-180zM268 1346l190 323h170l-248 -323h-112z" />
<glyph unicode="&#x145;" horiz-adv-x="761" d="M68 0v1604h180l274 -990v990h168v-1604h-160l-292 977v-977h-170zM305 -350l10 215q2 47 22.5 67.5t43.5 20.5q29 0 52 -15.5t23 -56.5q0 -45 -18 -88l-57 -143h-76z" />
<glyph unicode="&#x146;" horiz-adv-x="778" d="M68 0v1251h118l41 -59q31 35 76 55.5t121 20.5q129 0 208 -81t79 -216v-971h-181v965q0 66 -43 99.5t-98 33.5q-53 0 -97 -34t-44 -99v-965h-180zM314 -350l10 215q2 47 22.5 67.5t43.5 20.5q29 0 52 -15.5t23 -56.5q0 -45 -18 -88l-57 -143h-76z" />
<glyph unicode="&#x147;" horiz-adv-x="761" d="M68 0v1604h180l274 -990v990h168v-1604h-160l-292 977v-977h-170zM76 2021h172l135 -219l135 219h170l-223 -323h-162z" />
<glyph unicode="&#x148;" horiz-adv-x="778" d="M68 0v1251h118l41 -59q31 35 76 55.5t121 20.5q129 0 208 -81t79 -216v-971h-181v965q0 66 -43 99.5t-98 33.5q-53 0 -97 -34t-44 -99v-965h-180zM84 1669h172l135 -219l135 219h170l-223 -323h-162z" />
<glyph unicode="&#x14a;" horiz-adv-x="761" d="M68 0v1604h180l274 -990v990h168v-1663q0 -66 -24.5 -122.5t-67.5 -99.5t-99.5 -67.5t-119.5 -24.5q-74 0 -125 25l47 182q33 -27 78 -27q55 0 99 39t44 95v86l-284 950v-977h-170z" />
<glyph unicode="&#x14b;" horiz-adv-x="778" d="M68 0v1251h118l41 -59q27 37 70 53.5t92 16.5q66 0 124 -25t102 -68t70 -99t26 -120v-1009q0 -66 -24.5 -122.5t-68 -99.5t-99.5 -67.5t-120 -24.5q-72 0 -127 25l50 182q33 -27 77 -27q55 0 93 39t38 95v1009q0 53 -43 92t-98 39q-53 0 -97 -38.5t-44 -92.5v-950h-180z " />
<glyph unicode="&#x14c;" horiz-adv-x="751" d="M60 1786v137h639v-137h-639zM63 283v1036q0 74 25 131t68 97t99 61.5t120 21.5q66 0 122 -21.5t98 -61.5t66.5 -97t24.5 -131v-1036q0 -70 -24.5 -127.5t-66.5 -98.5t-98.5 -63.5t-121.5 -22.5q-63 0 -119.5 22.5t-99.5 63.5t-68 98.5t-25 127.5zM244 283q0 -63 37.5 -97 t93.5 -34q53 0 92 33.5t39 97.5v1036q0 61 -39 96t-92 35q-55 0 -93 -35t-38 -96v-1036z" />
<glyph unicode="&#x14d;" horiz-adv-x="747" d="M58 1434v137h639v-137h-639zM61 283v682q0 70 24 126t66 96t99 60.5t123 20.5q63 0 119.5 -20.5t99.5 -60.5t67.5 -96.5t24.5 -125.5v-682q0 -72 -24.5 -130.5t-67.5 -98.5t-99.5 -61.5t-119.5 -21.5q-66 0 -123 21.5t-99 61.5t-66 98.5t-24 130.5zM242 283 q0 -63 37.5 -97t93.5 -34q53 0 92 33.5t39 97.5v682q0 66 -39 99.5t-92 33.5q-55 0 -93 -34t-38 -99v-682z" />
<glyph unicode="&#x14e;" horiz-adv-x="751" d="M63 283v1036q0 74 25 131t68 97t99 61.5t120 21.5q66 0 122 -21.5t98 -61.5t66.5 -97t24.5 -131v-1036q0 -70 -24.5 -127.5t-66.5 -98.5t-98.5 -63.5t-121.5 -22.5q-63 0 -119.5 22.5t-99.5 63.5t-68 98.5t-25 127.5zM111 2021h108q6 -63 20.5 -102t36 -60.5t48 -30 t53.5 -8.5q29 0 55.5 8.5t48 30t37 60.5t21.5 102h108q-4 -61 -20 -119.5t-49 -103.5t-82 -72.5t-119 -27.5q-68 0 -117 27.5t-80.5 72.5t-49 103.5t-19.5 119.5zM244 283q0 -63 37.5 -97t93.5 -34q53 0 92 33.5t39 97.5v1036q0 61 -39 96t-92 35q-55 0 -93 -35t-38 -96 v-1036z" />
<glyph unicode="&#x14f;" horiz-adv-x="747" d="M61 283v682q0 70 24 126t66 96t99 60.5t123 20.5q63 0 119.5 -20.5t99.5 -60.5t67.5 -96.5t24.5 -125.5v-682q0 -72 -24.5 -130.5t-67.5 -98.5t-99.5 -61.5t-119.5 -21.5q-66 0 -123 21.5t-99 61.5t-66 98.5t-24 130.5zM109 1669h108q6 -63 20.5 -102t36 -60.5t48 -30 t53.5 -8.5q29 0 55.5 8.5t48 30t37 60.5t21.5 102h108q-4 -61 -20 -119.5t-49 -103.5t-82 -72.5t-119 -27.5q-68 0 -117 27.5t-80.5 72.5t-49 103.5t-19.5 119.5zM242 283q0 -63 37.5 -97t93.5 -34q53 0 92 33.5t39 97.5v682q0 66 -39 99.5t-92 33.5q-55 0 -93 -34t-38 -99 v-682z" />
<glyph unicode="&#x150;" horiz-adv-x="751" d="M63 283v1036q0 74 25 131t68 97t99 61.5t120 21.5q66 0 122 -21.5t98 -61.5t66.5 -97t24.5 -131v-1036q0 -70 -24.5 -127.5t-66.5 -98.5t-98.5 -63.5t-121.5 -22.5q-63 0 -119.5 22.5t-99.5 63.5t-68 98.5t-25 127.5zM156 1698l190 323h170l-248 -323h-112zM244 283 q0 -63 37.5 -97t93.5 -34q53 0 92 33.5t39 97.5v1036q0 61 -39 96t-92 35q-55 0 -93 -35t-38 -96v-1036zM436 1698l191 323h172l-250 -323h-113z" />
<glyph unicode="&#x151;" horiz-adv-x="747" d="M61 283v682q0 70 24 126t66 96t99 60.5t123 20.5q63 0 119.5 -20.5t99.5 -60.5t67.5 -96.5t24.5 -125.5v-682q0 -72 -24.5 -130.5t-67.5 -98.5t-99.5 -61.5t-119.5 -21.5q-66 0 -123 21.5t-99 61.5t-66 98.5t-24 130.5zM154 1346l190 323h170l-248 -323h-112zM242 283 q0 -63 37.5 -97t93.5 -34q53 0 92 33.5t39 97.5v682q0 66 -39 99.5t-92 33.5q-55 0 -93 -34t-38 -99v-682zM434 1346l191 323h172l-250 -323h-113z" />
<glyph unicode="&#x152;" horiz-adv-x="1060" d="M66 283v1036q0 63 24.5 120.5t67.5 99.5t99 66.5t120 24.5q80 0 133 -26h498v-181h-318v-528h205v-180h-205v-535h318v-180h-492q-74 -29 -139 -29q-63 0 -119.5 24.5t-99.5 66.5t-67.5 98.5t-24.5 122.5zM246 283q0 -55 39 -93t92 -38t91 33.5t42 86.5v1057 q-4 45 -39 82q-37 39 -94 39q-53 0 -92 -39t-39 -92v-1036z" />
<glyph unicode="&#x153;" horiz-adv-x="1191" d="M63 283v682q0 63 25 120.5t68 100.5t99 67.5t120 24.5q66 0 123 -24.5t98 -69.5q45 45 101.5 69.5t121.5 24.5q63 0 120.5 -23.5t99.5 -66.5t66.5 -105.5t24.5 -142.5q0 -123 -25.5 -209t-78.5 -152.5t-137 -121t-203 -113.5v-72q4 -53 38 -86.5t87 -33.5t90 37.5 t37 93.5v20l180 59v-79q0 -66 -24.5 -122.5t-65.5 -98.5t-97.5 -66.5t-119.5 -24.5q-127 0 -217 90q-43 -41 -98.5 -65.5t-120.5 -24.5q-63 0 -119.5 24.5t-99.5 66.5t-68 98.5t-25 122.5zM244 283q0 -55 37.5 -93t93.5 -38q53 0 92 37.5t39 93.5v694q-4 51 -42 86t-89 35 q-55 0 -93 -39t-38 -94v-682zM686 551q80 43 132 84t81 85t40 95.5t11 114.5q0 94 -39 131t-92 37t-91 -35t-42 -86v-426z" />
<glyph unicode="&#x154;" horiz-adv-x="755" d="M68 0v1604h311q147 0 224 -81t77 -241v-221q0 -86 -39 -140.5t-104 -76.5q63 -20 108 -82t45 -174v-588h-180v565q0 55 -8 90t-26.5 53.5t-48.5 25.5t-73 7h-106v-741h-180zM248 907h94q82 0 120 39t38 135v170q0 86 -30 129t-128 43h-94v-516zM258 1698l190 323h170 l-248 -323h-112z" />
<glyph unicode="&#x155;" horiz-adv-x="516" d="M68 0v1251h118l41 -80q16 33 54.5 65t97.5 32q72 0 106 -35l-61 -162q-14 16 -55 16q-47 0 -84 -39.5t-37 -101.5v-946h-180zM137 1346l190 323h170l-248 -323h-112z" />
<glyph unicode="&#x156;" horiz-adv-x="755" d="M68 0v1604h311q147 0 224 -81t77 -241v-221q0 -86 -39 -140.5t-104 -76.5q63 -20 108 -82t45 -174v-588h-180v565q0 55 -8 90t-26.5 53.5t-48.5 25.5t-73 7h-106v-741h-180zM248 907h94q82 0 120 39t38 135v170q0 86 -30 129t-128 43h-94v-516zM301 -350l10 215 q2 47 22.5 67.5t43.5 20.5q29 0 52 -15.5t23 -56.5q0 -45 -18 -88l-57 -143h-76z" />
<glyph unicode="&#x157;" horiz-adv-x="516" d="M68 0v1251h118l41 -80q16 33 54.5 65t97.5 32q72 0 106 -35l-61 -162q-14 16 -55 16q-47 0 -84 -39.5t-37 -101.5v-946h-180zM68 -350l10 215q2 47 22.5 67.5t43.5 20.5q29 0 52 -15.5t23 -56.5q0 -45 -18 -88l-57 -143h-76z" />
<glyph unicode="&#x158;" horiz-adv-x="755" d="M35 2021h172l135 -219l135 219h170l-223 -323h-162zM68 0v1604h311q147 0 224 -81t77 -241v-221q0 -86 -39 -140.5t-104 -76.5q63 -20 108 -82t45 -174v-588h-180v565q0 55 -8 90t-26.5 53.5t-48.5 25.5t-73 7h-106v-741h-180zM248 907h94q82 0 120 39t38 135v170 q0 86 -30 129t-128 43h-94v-516z" />
<glyph unicode="&#x159;" horiz-adv-x="516" d="M-45 1669h172l135 -219l135 219h170l-223 -323h-162zM68 0v1251h118l41 -80q16 33 54.5 65t97.5 32q72 0 106 -35l-61 -162q-14 16 -55 16q-47 0 -84 -39.5t-37 -101.5v-946h-180z" />
<glyph unicode="&#x15a;" horiz-adv-x="747" d="M55 283v86l181 -39v-47q0 -55 41.5 -94t95.5 -39q72 0 106.5 44t34.5 109q0 53 -6 94t-23 82q-25 63 -59.5 120.5t-74.5 113t-82 110t-81 107.5q-61 86 -97 168t-36 205q0 147 80 237t232 90q135 0 223 -77.5t88 -233.5v-88l-180 39v49q0 53 -39 92t-92 39 q-41 0 -67 -16.5t-41 -42t-20.5 -57t-5.5 -64.5q0 -49 21.5 -101.5t54.5 -103.5t72 -100.5t72 -92.5q43 -57 86 -118.5t76.5 -126t55 -134t21.5 -145.5q0 -74 -17.5 -142.5t-57 -120.5t-102 -83t-150.5 -31q-72 0 -128.5 24.5t-97.5 66.5t-62.5 98.5t-21.5 122.5zM254 1698 l190 323h170l-248 -323h-112z" />
<glyph unicode="&#x15b;" horiz-adv-x="743" d="M55 283v86l181 -39v-47q0 -59 36.5 -95t96.5 -36q139 0 139 131q0 49 -12.5 82.5t-34.5 62.5q-33 37 -70 67.5t-74.5 61.5t-74.5 63.5t-70 71.5q-45 53 -72.5 119t-27.5 152q0 68 22.5 124t63.5 96t97 62.5t124 22.5q141 0 217 -84t76 -219v-86l-176 41v45q0 61 -34 97 t-89 36q-57 0 -89 -37t-32 -100q0 -72 45 -129.5t108.5 -110.5t130 -109.5t109.5 -126.5q23 -37 35 -81t12 -89q0 -68 -19.5 -129t-59.5 -109t-100 -77t-144 -29q-70 0 -127.5 22.5t-99.5 63.5t-64.5 98.5t-22.5 127.5zM252 1346l190 323h170l-248 -323h-112z" />
<glyph unicode="&#x15e;" horiz-adv-x="747" d="M55 283v86l181 -39v-47q0 -55 41.5 -94t95.5 -39q72 0 106.5 44t34.5 109q0 53 -6 94t-23 82q-25 63 -59.5 120.5t-74.5 113t-82 110t-81 107.5q-61 86 -97 168t-36 205q0 147 80 237t232 90q135 0 223 -77.5t88 -233.5v-88l-180 39v49q0 53 -39 92t-92 39 q-41 0 -67 -16.5t-41 -42t-20.5 -57t-5.5 -64.5q0 -49 21.5 -101.5t54.5 -103.5t72 -100.5t72 -92.5q43 -57 86 -118.5t76.5 -126t55 -134t21.5 -145.5q0 -74 -17.5 -142.5t-57 -120.5t-102 -83t-150.5 -31q-72 0 -128.5 24.5t-97.5 66.5t-62.5 98.5t-21.5 122.5zM297 -350 l10 215q2 47 22.5 67.5t43.5 20.5q29 0 52 -15.5t23 -56.5q0 -45 -18 -88l-57 -143h-76z" />
<glyph unicode="&#x15f;" horiz-adv-x="743" d="M55 283v86l181 -39v-47q0 -59 36.5 -95t96.5 -36q139 0 139 131q0 49 -12.5 82.5t-34.5 62.5q-33 37 -70 67.5t-74.5 61.5t-74.5 63.5t-70 71.5q-45 53 -72.5 119t-27.5 152q0 68 22.5 124t63.5 96t97 62.5t124 22.5q141 0 217 -84t76 -219v-86l-176 41v45q0 61 -34 97 t-89 36q-57 0 -89 -37t-32 -100q0 -72 45 -129.5t108.5 -110.5t130 -109.5t109.5 -126.5q23 -37 35 -81t12 -89q0 -68 -19.5 -129t-59.5 -109t-100 -77t-144 -29q-70 0 -127.5 22.5t-99.5 63.5t-64.5 98.5t-22.5 127.5zM295 -350l10 215q2 47 22.5 67.5t43.5 20.5 q29 0 52 -15.5t23 -56.5q0 -45 -18 -88l-57 -143h-76z" />
<glyph unicode="&#x160;" horiz-adv-x="747" d="M55 283v86l181 -39v-47q0 -55 41.5 -94t95.5 -39q72 0 106.5 44t34.5 109q0 53 -6 94t-23 82q-25 63 -59.5 120.5t-74.5 113t-82 110t-81 107.5q-61 86 -97 168t-36 205q0 147 80 237t232 90q135 0 223 -77.5t88 -233.5v-88l-180 39v49q0 53 -39 92t-92 39 q-41 0 -67 -16.5t-41 -42t-20.5 -57t-5.5 -64.5q0 -49 21.5 -101.5t54.5 -103.5t72 -100.5t72 -92.5q43 -57 86 -118.5t76.5 -126t55 -134t21.5 -145.5q0 -74 -17.5 -142.5t-57 -120.5t-102 -83t-150.5 -31q-72 0 -128.5 24.5t-97.5 66.5t-62.5 98.5t-21.5 122.5zM72 2021 h172l135 -219l135 219h170l-223 -323h-162z" />
<glyph unicode="&#x161;" horiz-adv-x="743" d="M55 283v86l181 -39v-47q0 -59 36.5 -95t96.5 -36q139 0 139 131q0 49 -12.5 82.5t-34.5 62.5q-33 37 -70 67.5t-74.5 61.5t-74.5 63.5t-70 71.5q-45 53 -72.5 119t-27.5 152q0 68 22.5 124t63.5 96t97 62.5t124 22.5q141 0 217 -84t76 -219v-86l-176 41v45q0 61 -34 97 t-89 36q-57 0 -89 -37t-32 -100q0 -72 45 -129.5t108.5 -110.5t130 -109.5t109.5 -126.5q23 -37 35 -81t12 -89q0 -68 -19.5 -129t-59.5 -109t-100 -77t-144 -29q-70 0 -127.5 22.5t-99.5 63.5t-64.5 98.5t-22.5 127.5zM70 1669h172l135 -219l135 219h170l-223 -323h-162z " />
<glyph unicode="&#x162;" horiz-adv-x="589" d="M20 1423v181h549v-181h-186v-1423h-180v1423h-183zM203 -350l10 215q2 47 22.5 67.5t43.5 20.5q29 0 52 -15.5t23 -56.5q0 -45 -18 -88l-57 -143h-76z" />
<glyph unicode="&#x163;" horiz-adv-x="667" d="M41 1092v159h115v228l180 61v-289h237v-159h-237v-811q0 -129 92 -129q57 0 82 41l125 -136q-35 -41 -90.5 -63.5t-108.5 -22.5q-141 0 -210.5 79t-69.5 231v811h-115zM258 -350l10 215q2 47 22.5 67.5t43.5 20.5q29 0 52 -15.5t23 -56.5q0 -45 -18 -88l-57 -143h-76z " />
<glyph unicode="&#x164;" horiz-adv-x="589" d="M-10 2021h172l135 -219l135 219h170l-223 -323h-162zM20 1423v181h549v-181h-186v-1423h-180v1423h-183z" />
<glyph unicode="&#x165;" horiz-adv-x="849" d="M41 1092v159h115v228l180 61v-289h237v-159h-237v-811q0 -129 92 -129q57 0 82 41l125 -136q-35 -41 -90.5 -63.5t-108.5 -22.5q-141 0 -210.5 79t-69.5 231v811h-115zM629 1092l18 464q2 59 28 86t58 27q35 0 66 -29.5t31 -83.5q0 -31 -13 -63l-137 -401h-51z" />
<glyph unicode="&#x166;" horiz-adv-x="589" d="M20 1423v181h549v-181h-186v-186h172v-160h-172v-1077h-180v1077h-166v160h166v186h-183z" />
<glyph unicode="&#x167;" horiz-adv-x="667" d="M41 725v158h115v209h-115v159h115v228l180 61v-289h237v-159h-237v-209h223v-158h-223v-444q0 -131 92 -131q29 0 50.5 12t31.5 31l125 -136q-35 -41 -90.5 -63.5t-108.5 -22.5q-135 0 -207.5 85t-72.5 225v444h-115z" />
<glyph unicode="&#x168;" horiz-adv-x="757" d="M55 1831q41 76 89 105.5t110 29.5q47 0 77.5 -10.5t56.5 -22.5t52.5 -22.5t65.5 -10.5q35 0 62.5 15.5t49.5 62.5l88 -70q-23 -66 -78 -102.5t-112 -36.5q-43 0 -76 11.5t-59.5 23.5t-52 23.5t-54.5 11.5q-39 0 -71.5 -16.5t-67.5 -67.5zM66 283v1321h180v-1321 q0 -70 38 -100.5t93 -30.5q53 0 92 30.5t39 100.5v1321h180v-1321q0 -72 -24.5 -129.5t-66.5 -98.5t-98.5 -62.5t-121.5 -21.5q-63 0 -119.5 21.5t-99.5 62.5t-67.5 98.5t-24.5 129.5z" />
<glyph unicode="&#x169;" horiz-adv-x="749" d="M51 1479q41 76 89 105.5t110 29.5q47 0 77.5 -10.5t56.5 -22.5t52.5 -22.5t65.5 -10.5q35 0 62.5 15.5t49.5 62.5l88 -70q-23 -66 -78 -102.5t-112 -36.5q-43 0 -76 11.5t-59.5 23.5t-52 23.5t-54.5 11.5q-39 0 -71.5 -16.5t-67.5 -67.5zM66 303v948h180v-968 q0 -63 35.5 -97t91.5 -34q53 0 90 31.5t37 99.5v968h180v-1251h-119l-41 59q-18 -27 -60 -57.5t-130 -30.5q-123 0 -193.5 86t-70.5 246z" />
<glyph unicode="&#x16a;" horiz-adv-x="757" d="M64 1786v137h639v-137h-639zM66 283v1321h180v-1321q0 -70 38 -100.5t93 -30.5q53 0 92 30.5t39 100.5v1321h180v-1321q0 -72 -24.5 -129.5t-66.5 -98.5t-98.5 -62.5t-121.5 -21.5q-63 0 -119.5 21.5t-99.5 62.5t-67.5 98.5t-24.5 129.5z" />
<glyph unicode="&#x16b;" horiz-adv-x="749" d="M60 1434v137h639v-137h-639zM66 303v948h180v-968q0 -63 35.5 -97t91.5 -34q53 0 90 31.5t37 99.5v968h180v-1251h-119l-41 59q-18 -27 -60 -57.5t-130 -30.5q-123 0 -193.5 86t-70.5 246z" />
<glyph unicode="&#x16c;" horiz-adv-x="757" d="M66 283v1321h180v-1321q0 -70 38 -100.5t93 -30.5q53 0 92 30.5t39 100.5v1321h180v-1321q0 -72 -24.5 -129.5t-66.5 -98.5t-98.5 -62.5t-121.5 -21.5q-63 0 -119.5 21.5t-99.5 62.5t-67.5 98.5t-24.5 129.5zM113 2021h108q6 -63 20.5 -102t36 -60.5t48 -30t53.5 -8.5 q29 0 55.5 8.5t48 30t37 60.5t21.5 102h108q-4 -61 -20 -119.5t-49 -103.5t-82 -72.5t-119 -27.5q-68 0 -117 27.5t-80.5 72.5t-49 103.5t-19.5 119.5z" />
<glyph unicode="&#x16d;" horiz-adv-x="749" d="M66 303v948h180v-968q0 -63 35.5 -97t91.5 -34q53 0 90 31.5t37 99.5v968h180v-1251h-119l-41 59q-18 -27 -60 -57.5t-130 -30.5q-123 0 -193.5 86t-70.5 246zM109 1669h108q6 -63 20.5 -102t36 -60.5t48 -30t53.5 -8.5q29 0 55.5 8.5t48 30t37 60.5t21.5 102h108 q-4 -61 -20 -119.5t-49 -103.5t-82 -72.5t-119 -27.5q-68 0 -117 27.5t-80.5 72.5t-49 103.5t-19.5 119.5z" />
<glyph unicode="&#x16e;" horiz-adv-x="757" d="M66 283v1321h180v-1321q0 -70 38 -100.5t93 -30.5q53 0 92 30.5t39 100.5v1321h180v-1321q0 -72 -24.5 -129.5t-66.5 -98.5t-98.5 -62.5t-121.5 -21.5q-63 0 -119.5 21.5t-99.5 62.5t-67.5 98.5t-24.5 129.5zM221 1861q0 72 45 116t110 44q68 0 113 -44t45 -116 t-45 -117.5t-113 -45.5q-66 0 -110.5 46t-44.5 117zM293 1861q0 -41 24 -65.5t59 -24.5q37 0 61.5 24.5t24.5 65.5q0 37 -24.5 61.5t-61.5 24.5q-35 0 -59 -24.5t-24 -61.5z" />
<glyph unicode="&#x16f;" horiz-adv-x="749" d="M66 303v948h180v-968q0 -63 35.5 -97t91.5 -34q53 0 90 31.5t37 99.5v968h180v-1251h-119l-41 59q-18 -27 -60 -57.5t-130 -30.5q-123 0 -193.5 86t-70.5 246zM217 1509q0 72 45 116t110 44q68 0 113 -44t45 -116t-45 -117.5t-113 -45.5q-66 0 -110.5 46t-44.5 117z M289 1509q0 -41 24 -65.5t59 -24.5q37 0 61.5 24.5t24.5 65.5q0 37 -24.5 61.5t-61.5 24.5q-35 0 -59 -24.5t-24 -61.5z" />
<glyph unicode="&#x170;" horiz-adv-x="757" d="M66 283v1321h180v-1321q0 -70 38 -100.5t93 -30.5q53 0 92 30.5t39 100.5v1321h180v-1321q0 -72 -24.5 -129.5t-66.5 -98.5t-98.5 -62.5t-121.5 -21.5q-63 0 -119.5 21.5t-99.5 62.5t-67.5 98.5t-24.5 129.5zM160 1698l190 323h170l-248 -323h-112zM440 1698l191 323h172 l-250 -323h-113z" />
<glyph unicode="&#x171;" horiz-adv-x="749" d="M66 303v948h180v-968q0 -63 35.5 -97t91.5 -34q53 0 90 31.5t37 99.5v968h180v-1251h-119l-41 59q-18 -27 -60 -57.5t-130 -30.5q-123 0 -193.5 86t-70.5 246zM156 1346l190 323h170l-248 -323h-112zM436 1346l191 323h172l-250 -323h-113z" />
<glyph unicode="&#x172;" horiz-adv-x="757" d="M66 283v1321h180v-1321q0 -55 38 -93t93 -38q53 0 92 37.5t39 93.5v1321h180v-1321q0 -96 -51 -170t-129 -113l-170 -82q-41 -20 -57.5 -46t-16.5 -48q0 -31 23.5 -53.5t60.5 -22.5q29 0 50.5 12.5t31.5 30.5l125 -135q-35 -41 -90 -63.5t-109 -22.5q-70 0 -119 18.5 t-79.5 49t-44 70.5t-13.5 81q0 49 33 96t105 70l71 25q-53 12 -97 39.5t-77 67.5t-51 90t-18 106z" />
<glyph unicode="&#x173;" horiz-adv-x="749" d="M66 303v948h180v-948q0 -55 35.5 -93t91.5 -38q53 0 90 38t37 93v948h180v-1251l-170 -82q-39 -20 -56.5 -46t-17.5 -48q0 -31 24.5 -53.5t59.5 -22.5q29 0 50.5 12.5t31.5 30.5l125 -135q-35 -41 -90 -63.5t-109 -22.5q-70 0 -119 18.5t-79.5 49t-44 70.5t-13.5 81 q0 49 33 96t105 70l147 49l-37 55q-18 -23 -55 -45t-109 -22q-57 0 -110 20.5t-93 60.5t-63.5 98t-23.5 132z" />
<glyph unicode="&#x174;" horiz-adv-x="1052" d="M20 1604h207l97 -1004l137 1004h155l136 -1004l96 1004h184l-211 -1604h-166l-131 999l-131 -999h-168zM219 1698l223 323h162l227 -323h-172l-135 219l-135 -219h-170z" />
<glyph unicode="&#x175;" horiz-adv-x="1052" d="M20 1251h201l96 -790l138 790h153l137 -790l97 790h190l-221 -1251h-166l-121 745l-123 -745h-165zM219 1346l223 323h162l227 -323h-172l-135 219l-135 -219h-170z" />
<glyph unicode="&#x176;" horiz-adv-x="757" d="M20 1604h205l150 -576l149 576h195l-258 -846v-758h-182v750zM74 1698l223 323h162l227 -323h-172l-135 219l-135 -219h-170z" />
<glyph unicode="&#x177;" horiz-adv-x="739" d="M45 274v977h180v-968q0 -66 38 -98.5t95 -32.5q53 0 91 32.5t38 98.5v968h183v-1601h-183v389q-14 -23 -50 -45.5t-113 -22.5q-51 0 -101.5 16.5t-89.5 52.5t-63.5 93t-24.5 141zM68 1346l223 323h162l227 -323h-172l-135 219l-135 -219h-170z" />
<glyph unicode="&#x178;" horiz-adv-x="757" d="M20 1604h205l150 -576l149 576h195l-258 -846v-758h-182v750zM135 1911q0 43 26.5 76.5t67.5 33.5t66.5 -32.5t25.5 -77.5q-2 -47 -26.5 -80t-65.5 -33t-67.5 32.5t-26.5 80.5zM436 1911q0 43 26.5 76.5t67.5 33.5t66.5 -32.5t25.5 -77.5q-2 -47 -26.5 -80t-65.5 -33 t-67.5 32.5t-26.5 80.5z" />
<glyph unicode="&#x179;" horiz-adv-x="739" d="M57 0v141l416 1268h-407v195h614v-142l-410 -1267h410v-195h-623zM260 1698l190 323h170l-248 -323h-112z" />
<glyph unicode="&#x17a;" horiz-adv-x="710" d="M66 0v141l383 918h-377v192h573v-141l-375 -917h375v-193h-579zM246 1346l190 323h170l-248 -323h-112z" />
<glyph unicode="&#x17b;" horiz-adv-x="739" d="M57 0v141l416 1268h-407v195h614v-142l-410 -1267h410v-195h-623zM285 1911q0 43 26.5 76.5t67.5 33.5t66.5 -32.5t25.5 -77.5q-2 -47 -26.5 -80t-65.5 -33t-67.5 32.5t-26.5 80.5z" />
<glyph unicode="&#x17c;" horiz-adv-x="710" d="M66 0v141l383 918h-377v192h573v-141l-375 -917h375v-193h-579zM271 1559q0 43 26.5 76.5t67.5 33.5t66.5 -32.5t25.5 -77.5q-2 -47 -26.5 -80t-65.5 -33t-67.5 32.5t-26.5 80.5z" />
<glyph unicode="&#x17d;" horiz-adv-x="739" d="M57 0v141l416 1268h-407v195h614v-142l-410 -1267h410v-195h-623zM76 2021h172l135 -219l135 219h170l-223 -323h-162z" />
<glyph unicode="&#x17e;" horiz-adv-x="710" d="M64 1669h172l135 -219l135 219h170l-223 -323h-162zM66 0v141l383 918h-377v192h573v-141l-375 -917h375v-193h-579z" />
<glyph unicode="&#x2000;" horiz-adv-x="1010" />
<glyph unicode="&#x2001;" horiz-adv-x="2021" />
<glyph unicode="&#x2002;" horiz-adv-x="1010" />
<glyph unicode="&#x2003;" horiz-adv-x="2021" />
<glyph unicode="&#x2004;" horiz-adv-x="673" />
<glyph unicode="&#x2005;" horiz-adv-x="505" />
<glyph unicode="&#x2006;" horiz-adv-x="336" />
<glyph unicode="&#x2007;" horiz-adv-x="336" />
<glyph unicode="&#x2008;" horiz-adv-x="252" />
<glyph unicode="&#x2009;" horiz-adv-x="404" />
<glyph unicode="&#x200a;" horiz-adv-x="112" />
<glyph unicode="&#x2010;" horiz-adv-x="655" d="M68 725v158h516v-158h-516z" />
<glyph unicode="&#x2011;" horiz-adv-x="655" d="M68 725v158h516v-158h-516z" />
<glyph unicode="&#x2012;" horiz-adv-x="655" d="M68 725v158h516v-158h-516z" />
<glyph unicode="&#x2013;" horiz-adv-x="897" d="M68 725v158h761v-158h-761z" />
<glyph unicode="&#x2014;" horiz-adv-x="1343" d="M68 725v158h1208v-158h-1208z" />
<glyph unicode="&#x2018;" horiz-adv-x="286" d="M43 1206q0 31 12 62l135 401h54l-19 -465q-2 -59 -28.5 -85.5t-57.5 -26.5q-35 0 -65.5 30.5t-30.5 83.5z" />
<glyph unicode="&#x2019;" horiz-adv-x="286" d="M43 1092l18 464q2 59 28 86t58 27q35 0 66 -29.5t31 -83.5q0 -31 -13 -63l-137 -401h-51z" />
<glyph unicode="&#x201a;" horiz-adv-x="286" d="M37 -350l18 467q2 59 28 85.5t58 26.5q35 0 66 -30.5t31 -83.5q0 -31 -13 -64l-137 -401h-51z" />
<glyph unicode="&#x201c;" horiz-adv-x="530" d="M43 1206q0 31 12 62l135 401h54l-19 -465q-2 -59 -28.5 -85.5t-57.5 -26.5q-35 0 -65.5 30.5t-30.5 83.5zM289 1206q0 31 12 62l135 401h54l-19 -465q-2 -59 -28.5 -85.5t-57.5 -26.5q-35 0 -65.5 30.5t-30.5 83.5z" />
<glyph unicode="&#x201d;" horiz-adv-x="530" d="M43 1092l18 464q2 59 28 86t58 27q35 0 66 -29.5t31 -83.5q0 -31 -13 -63l-137 -401h-51zM289 1092l18 464q2 59 28 86t58 27q35 0 66 -29.5t31 -83.5q0 -31 -13 -63l-137 -401h-51z" />
<glyph unicode="&#x201e;" horiz-adv-x="530" d="M37 -350l18 467q2 59 28 85.5t58 26.5q35 0 66 -30.5t31 -83.5q0 -31 -13 -64l-137 -401h-51zM283 -350l18 467q2 59 28 85.5t58 26.5q35 0 66 -30.5t31 -83.5q0 -31 -13 -64l-137 -401h-51z" />
<glyph unicode="&#x2020;" horiz-adv-x="565" d="M31 1114q0 47 22.5 64.5t59.5 17.5q59 0 127 -43q-35 66 -35 127q0 88 28 158l-32 26q-4 16 -4 31q0 43 26 59h117q27 -14 27 -59q0 -25 -2 -31l-33 -26q14 -35 18 -75t4 -83q0 -63 -28 -127q61 43 129 43q33 0 56.5 -17.5t23.5 -64.5q0 -27 -15.5 -39t-34.5 -12 q-4 31 -63 31q-33 0 -58.5 -10.5t-50.5 -30.5q61 -35 62 -103q0 -127 -5 -264t-16.5 -265t-30 -234.5t-44.5 -172.5q-25 66 -43.5 172.5t-29.5 234.5t-16.5 265t-5.5 264q0 70 60 103q-41 41 -107 41q-59 0 -65 -31q-12 0 -26.5 12t-14.5 39z" />
<glyph unicode="&#x2021;" horiz-adv-x="532" d="M31 170q0 23 12 35t27 12q6 -29 61 -29q33 0 56.5 10.5t45.5 28.5q-57 29 -57 99q0 80 11.5 163.5t15.5 165.5q-4 86 -15.5 172t-11.5 164q0 59 57 99q-47 37 -102 36q-55 0 -61 -26q-14 0 -26.5 12t-12.5 33q0 45 21.5 61.5t56.5 16.5q53 0 116 -41q-29 66 -28 116 q0 43 5 78t19 70l-31 27q-6 12 -6 28q0 39 27 55h108q25 -12 25 -55q0 -27 -2 -28l-29 -27q10 -31 14.5 -68t4.5 -80q0 -31 -4 -58.5t-23 -57.5q29 20 57.5 30.5t63.5 10.5q33 0 54.5 -16.5t21.5 -61.5q0 -20 -14.5 -32.5t-28.5 -12.5q-2 14 -18.5 20t-45.5 6t-51 -9 t-47 -27q57 -37 57 -99q0 -78 -12 -164t-16 -172q4 -82 16 -165.5t12 -163.5q0 -61 -57 -99q25 -18 47.5 -28.5t50.5 -10.5q61 0 64 29q14 0 28.5 -12t14.5 -35q0 -41 -21.5 -58.5t-54.5 -17.5q-63 0 -121 39q18 -31 22.5 -60.5t4.5 -58.5q0 -41 -4 -76.5t-15 -68.5l29 -25 q2 -6 2 -26q0 -41 -25 -60h-108q-27 23 -27 60q0 14 6 26l31 25q-14 35 -19 71.5t-5 73.5q0 59 28 119q-59 -39 -116 -39q-35 0 -56.5 17.5t-21.5 58.5z" />
<glyph unicode="&#x2022;" horiz-adv-x="636" d="M53 711q0 55 20.5 103t55.5 85t84 57.5t104 20.5t103.5 -20.5t84.5 -57.5t56.5 -85t20.5 -103t-20.5 -103.5t-56.5 -84.5t-84 -56.5t-104 -20.5q-55 0 -104 20.5t-84 56.5t-55.5 84.5t-20.5 103.5z" />
<glyph unicode="&#x2026;" horiz-adv-x="1327" d="M84 106q0 47 21.5 84t68.5 37q45 0 68 -36t23 -85q0 -47 -23 -82.5t-68 -35.5q-47 0 -68.5 37.5t-21.5 80.5zM581 106q0 47 21.5 84t68.5 37q45 0 68 -36t23 -85q0 -47 -23 -82.5t-68 -35.5q-47 0 -68.5 37.5t-21.5 80.5zM1079 106q0 47 21.5 84t68.5 37q45 0 68 -36 t23 -85q0 -47 -23 -82.5t-68 -35.5q-47 0 -68.5 37.5t-21.5 80.5z" />
<glyph unicode="&#x202f;" horiz-adv-x="404" />
<glyph unicode="&#x2030;" horiz-adv-x="1490" d="M66 907v557q0 37 14 69t38.5 56.5t56.5 39t69 14.5t69.5 -14.5t57 -39t39 -56.5t14.5 -69v-557q0 -76 -52.5 -129t-127.5 -53q-37 0 -69 14.5t-56.5 39t-38.5 58.5t-14 70zM74 0l784 1604h129l-780 -1604h-133zM184 907q0 -27 16.5 -43t43.5 -16q25 0 42 16.5t17 42.5 v557q0 27 -17.5 42.5t-41.5 15.5q-27 0 -43.5 -15.5t-16.5 -42.5v-557zM633 145v557q0 37 14 69t38.5 56.5t56.5 39t69 14.5t69.5 -14.5t57 -39t39 -56.5t14.5 -69v-557q0 -76 -52.5 -129t-127.5 -53q-37 0 -69 14.5t-56.5 39t-38.5 58.5t-14 70zM751 145q0 -27 16.5 -43 t43.5 -16q25 0 42 16.5t17 42.5v557q0 27 -17.5 42.5t-41.5 15.5q-27 0 -43.5 -15.5t-16.5 -42.5v-557zM1067 145v557q0 37 14 69t38.5 56.5t56.5 39t69 14.5t69.5 -14.5t57 -39t39 -56.5t14.5 -69v-557q0 -76 -52.5 -129t-127.5 -53q-37 0 -69 14.5t-56.5 39t-38.5 58.5 t-14 70zM1185 145q0 -27 16.5 -43t43.5 -16q25 0 42 16.5t17 42.5v557q0 27 -17.5 42.5t-41.5 15.5q-27 0 -43.5 -15.5t-16.5 -42.5v-557z" />
<glyph unicode="&#x2039;" horiz-adv-x="389" d="M70 784v134l247 260v-199l-147 -125l147 -127v-192z" />
<glyph unicode="&#x203a;" horiz-adv-x="389" d="M70 535v192l147 127l-147 125v199l247 -260v-134z" />
<glyph unicode="&#x2044;" horiz-adv-x="397" d="M-256 0l784 1604h129l-780 -1604h-133z" />
<glyph unicode="&#x205f;" horiz-adv-x="505" />
<glyph unicode="&#x20ac;" horiz-adv-x="702" d="M43 610l14 109h93v125h-107l14 104h93v371q0 63 24.5 120.5t67.5 99.5t99 66.5t122 24.5q41 0 78 -9t67 -30l-28 -219q-16 35 -48 56.5t-69 21.5q-57 0 -95 -39t-38 -92v-371h196l-12 -104h-184v-125h168l-15 -109h-153v-327q0 -55 38 -93t95 -38q59 0 98 45l94 -158 q-86 -68 -192 -68q-66 0 -122 24.5t-99 66.5t-67.5 98.5t-24.5 122.5v327h-107z" />
<glyph unicode="&#x20b9;" horiz-adv-x="755" d="M29 1604h680v-181h-82q10 -31 15 -67.5t5 -83.5h62v-180h-62q0 -111 -39 -168.5t-104 -79.5q63 -20 108 -82t45 -174v-588h-180v565q0 55 -8 90t-28.5 53.5t-52.5 25.5t-79 7l-41 166q113 0 156 41t43 144h-270l-62 180h332q-4 76 -35 113.5t-123 37.5h-219z" />
<glyph unicode="&#x25fc;" horiz-adv-x="1249" d="M0 0v1249h1249v-1249h-1249z" />
</font>
</defs>
</svg>
