<svg xmlns="http://www.w3.org/2000/svg" viewBox="0 0 17.198 17.198">
  <style>
    path { fill: #000; }
    @media (prefers-color-scheme: dark) {
        path { fill: #fff; }
    }
  </style>
  <path d="M5.934 8.434c-.21.514-.427.999-.605 1.509-.071.205-.224.291-.516.273-.382-.024-.739-.004-1.131-.003.008-.043.01-.07.019-.092.215-.54.43-1.081.65-1.619a.12.12 0 0 1 .107-.076c.452-.006.91-.004 1.366-.003.025 0 .053.005.11.011m8.123.014-.273.669c-.138.337-.275.676-.418 1.01a.122.122 0 0 1-.11.073c-.448.007-.9.005-1.352.005-.024 0-.051-.003-.107-.007.024-.07.039-.125.06-.175.208-.51.416-1.02.631-1.524.02-.046.08-.075.146-.076.46-.007.926-.006 1.39-.006l.033.031m-3.119 3.997c.221-.544.452-1.055.637-1.595.08-.233.245-.34.579-.315.368.028.705.005 1.099.004-.028.079-.044.13-.064.18-.224.555-.447 1.11-.675 1.66a.112.112 0 0 1-.101.07c-.46.007-.926.007-1.39.008-.016 0-.034-.005-.085-.012m1.115-4.003-.272.67c-.139.336-.276.675-.419 1.009a.122.122 0 0 1-.11.073c-.448.007-.9.005-1.352.005-.024 0-.051-.003-.107-.007.024-.07.04-.125.06-.175.209-.51.416-1.02.632-1.524.02-.046.08-.075.145-.076.46-.007.926-.006 1.39-.006l.033.031m-2.04-.008c-.206.512-.422 1-.6 1.513-.068.197-.213.277-.489.26-.356-.02-.688-.003-1.03-.003h-.152c.057-.145.103-.265.151-.382.184-.447.368-.895.555-1.34.013-.031.04-.062.082-.062.47-.005.944-.003 1.417-.002.012 0 .028.007.066.016m-2.045.015-.304.755c-.124.307-.246.616-.379.918-.02.046-.077.079-.142.08-.433.008-.873.006-1.311.006-.033 0-.068-.003-.126-.006.013-.042.018-.067.028-.09.219-.537.436-1.076.66-1.609.02-.047.078-.08.143-.08.416-.007.84-.004 1.26-.005h.14l.03.03m-2.851 2.118c-.062.157-.119.305-.178.45-.186.459-.371.917-.56 1.372-.015.034-.045.067-.09.068-.473.006-.951.005-1.447.006.002-.036-.003-.062.004-.08.232-.591.465-1.182.702-1.77a.105.105 0 0 1 .097-.062c.466-.004.936-.002 1.406-.002.01 0 .026.007.066.017m3.818 1.873c.221-.544.452-1.055.637-1.595.08-.233.245-.34.58-.315.367.027.705.005 1.098.004-.028.079-.044.13-.064.18-.223.554-.447 1.109-.674 1.66a.112.112 0 0 1-.102.07c-.46.006-.925.006-1.39.007-.015 0-.034-.004-.085-.01m-4.09.02c.044-.119.076-.21.111-.299.206-.508.41-1.017.623-1.52.024-.053.093-.09.17-.092.41-.01.83-.006 1.247-.006h.165c-.03.09-.05.153-.074.212-.221.541-.442 1.082-.67 1.618-.019.046-.076.079-.14.08-.46.008-.926.006-1.431.007m2.045-.034.196-.485c.18-.439.356-.88.543-1.314.02-.049.083-.081.152-.082.459-.008.925-.006 1.412-.007-.003.04 0 .065-.007.084-.234.582-.467 1.165-.709 1.742-.02.049-.082.082-.151.083-.464.008-.934.006-1.402.007a2.743 2.743 0 0 1-.034-.028M4.734 15.52c0 .306-.006.612.002.917.009.33-.088.446-.287.457-.532.029-.548.012-.544-.84.002-.496.006-.993 0-1.489-.003-.285.063-.417.25-.417.7-.002.569-.023.58.876.002.165 0 .331 0 .496zm6.752-.014c0-.33.003-.66 0-.99-.003-.253.068-.379.227-.379.707 0 .603-.06.61.908.005.457-.01.915-.004 1.372.003.325-.089.448-.287.46-.53.033-.546.017-.544-.838v-.533zM1.73 13.25h9.584c.612 0 1.223-.003 1.834.003.122 0 .18-.033.223-.153.595-1.64 1.196-3.276 1.796-4.914.024-.066.05-.131.089-.23.093.16.178.296.25.439.018.035.005.096-.01.138-.604 1.66-1.21 3.318-1.814 4.976-.083.23-.122.257-.37.257-3.69 0-7.381 0-11.071.005-.145 0-.238-.045-.305-.169-.062-.114-.131-.225-.206-.352m.343-.4h.247c2.036 0 4.073 0 6.11.002 1.44 0 2.882 0 4.323.008.143 0 .206-.043.257-.179.568-1.516 1.145-3.028 1.718-4.542.02-.053.032-.11.056-.19h-8.18l-2.457.002c-.073 0-.14-.015-.18.09-.504 1.283-1.015 2.564-1.522 3.846-.122.308-.24.618-.372.962m5.404.232H1.91c-.241 0-.27-.048-.181-.272.63-1.602 1.259-3.206 1.886-4.81.126-.32.147-.338.486-.338h10.726c.26 0 .286.036.198.285-.582 1.643-1.167 3.285-1.744 4.93-.053.152-.119.206-.286.206-1.84-.007-3.679-.004-5.518-.004v.004M3.55 2.133c.25.042.487.084.725.12.15.023.263.101.354.216.01.014.017.041.012.057-.036.099-.077.196-.118.301-.019-.013-.041-.026-.06-.043a1.805 1.805 0 0 0-.56-.325.564.564 0 0 1-.31-.237c-.017-.027-.028-.058-.043-.089m1.431 2.248c-.007.005-.012.013-.02.016a1.271 1.271 0 0 0-.453.351 2.084 2.084 0 0 1-.205.209.43.43 0 0 1-.312.104c.007-.017.01-.027.016-.036.126-.211.254-.421.376-.635a.476.476 0 0 1 .352-.246c.02-.003.048.004.06.017.064.071.124.146.186.22m3.2.755c-.11-.078-.201-.147-.297-.21-.134-.087-.27-.17-.408-.251a.593.593 0 0 1-.22-.269c-.005-.012-.003-.036.005-.046.07-.082.142-.163.215-.245 0 0 .005 0 .006.002.125.197.285.362.455.52.107.098.202.206.229.357.007.04.008.083.014.142m-2.04.868a1.684 1.684 0 0 0-.156-.6c-.074-.175-.096-.349-.005-.525.02-.038.041-.056.086-.054.086.004.172 0 .266 0-.006.027-.011.059-.02.09-.055.183-.016.364.018.545a.586.586 0 0 1-.153.515c-.007.008-.017.013-.036.028m.671.034c-.06-.118-.117-.237-.18-.353-.07-.131-.142-.26-.216-.389a.5.5 0 0 1-.026-.442c.007-.02.025-.046.043-.052.1-.032.203-.06.31-.09 0 .03.005.061 0 .09-.035.246-.014.486.068.722a.79.79 0 0 1 .059.377c-.007.047-.024.092-.036.139a.287.287 0 0 0-.022-.001m1.6-4.41c-.098.091-.2.18-.295.275-.095.093-.184.192-.273.29a.494.494 0 0 1-.29.162c-.018.003-.046-.005-.056-.018-.072-.09-.14-.182-.21-.276.076-.035.158-.064.23-.107.122-.072.239-.154.357-.232.094-.063.189-.13.305-.138.077-.005.155.01.233.017v.027m-3.358.344c-.01-.047-.022-.088-.026-.13a1.44 1.44 0 0 0-.245-.618.54.54 0 0 1-.097-.372c.006-.043.016-.085.028-.138.02.018.031.027.04.038.14.168.277.34.423.505.125.139.175.3.172.481 0 .02-.008.046-.023.055-.087.06-.177.117-.272.179m-.377 2.003c-.125.008-.246.019-.367.021-.254.005-.475.079-.643.28-.016.018-.063.03-.083.02-.04-.02-.026-.058-.005-.091.059-.091.118-.183.174-.276a.694.694 0 0 1 .641-.355c.133.001.13-.004.174.123.031.091.07.18.109.278m.769-2.253c.01-.25-.046-.488-.105-.725A.64.64 0 0 1 5.46.409c.01.034.019.06.028.084.085.226.165.454.257.677.053.13.07.26.056.397-.002.018-.016.044-.031.049-.104.037-.21.07-.324.106M7.72 2.9l-.133-.403.057-.003h.446c.204 0 .39-.051.545-.19.03-.027.063-.046.1-.01.027.027.04.06.01.093-.126.13-.25.265-.38.39a.442.442 0 0 1-.289.123c-.119.005-.238 0-.355 0M6.982.464c-.006.304-.011.601-.021.897a.522.522 0 0 1-.179.356l-.33-.113c.145-.22.161-.478.219-.725a.609.609 0 0 1 .312-.415M4.507 3.46c-.046-.014-.088-.024-.128-.038a8.46 8.46 0 0 1-.263-.096.825.825 0 0 0-.641.016c-.041.017-.094.059-.129-.005-.035-.066.028-.089.067-.117.104-.072.21-.142.315-.211a.588.588 0 0 1 .552-.068c.066.024.154.03.193.077.034.04.012.127.016.193l.018.249m.873 2.556c-.015-.322-.034-.631-.04-.94-.004-.138.09-.237.176-.334.007-.008.028-.011.041-.008l.307.085-.031.068c-.11.209-.167.432-.19.666a.627.627 0 0 1-.192.406c-.018.018-.04.033-.07.057m2.362-2.98.247.098.242.093a.728.728 0 0 0 .507.008c.027-.009.055-.025.082-.024.029.001.074.013.08.03.01.026 0 .079-.02.09-.187.115-.376.228-.593.278-.136.032-.263-.008-.388-.057-.174-.068-.172-.067-.158-.248.006-.086.001-.172.001-.268m-.558 1.402c.046.149.1.292.134.44.055.238.13.464.285.658.028.036.036.072-.003.105-.038.032-.077.031-.113-.004-.138-.129-.278-.255-.412-.387-.134-.13-.18-.302-.205-.48-.016-.118-.014-.117.085-.177.074-.045.143-.096.23-.155m.525-.836c.053.034.11.07.168.109.077.052.155.103.23.157.179.13.377.16.59.125.017-.003.038-.01.052-.003.023.011.057.028.06.047.004.024-.014.068-.033.074-.225.08-.451.168-.695.159a.517.517 0 0 1-.219-.068c-.096-.053-.184-.123-.273-.19-.015-.01-.03-.042-.024-.056.044-.118.094-.233.144-.354M4.96 2.057l-.252.319c-.01-.013-.025-.028-.037-.045-.08-.114-.163-.227-.242-.343a.775.775 0 0 0-.486-.335c-.013-.003-.03-.004-.037-.012-.018-.024-.044-.052-.043-.077 0-.02.035-.054.057-.056.2-.016.4-.017.592.047a.53.53 0 0 1 .183.116c.118.11.194.251.265.386m.47 2.64-.39.37a1.397 1.397 0 0 0-.321.452.662.662 0 0 1-.023.048c-.02.038-.047.065-.096.049-.047-.016-.059-.05-.05-.095.025-.141.05-.283.079-.424.013-.065.033-.129.055-.191.07-.193.218-.314.385-.417.01-.007.035-.005.047.003.099.063.196.127.315.205m1.786-2.706-.338-.233c.049-.05.098-.106.152-.156.087-.08.176-.157.267-.231.15-.122.26-.272.325-.454.007-.02.01-.043.023-.055.02-.018.047-.03.07-.043.015.026.044.053.041.078-.016.143-.047.285-.058.428-.026.326-.24.51-.482.666m-1.299-.415c.022-.087.042-.175.068-.261.04-.131.084-.261.125-.392.055-.17.06-.344.034-.52-.007-.045-.007-.086.044-.102.057-.017.08.02.097.066.05.144.102.288.151.432a.83.83 0 0 1-.04.646c-.064.135-.06.136-.205.132-.086-.003-.172 0-.274 0m.714.927a.863.863 0 0 0-1.11.133c-.325.343-.296.813-.11 1.072-.163-.79.59-1.38 1.22-1.205m-.517 1.843A1.138 1.138 0 0 1 4.969 3.21a1.148 1.148 0 1 1 2.298.01c.001.617-.518 1.124-1.152 1.126"/>
</svg>
