<svg xmlns="http://www.w3.org/2000/svg" viewBox="0 0 513.89 589.45">
  <path fill="#333" d="M339.53 31.55c-52.66 20.07-108.72 47.54-169.03 75.87a7.53 7.53 0 0 0-2.6 2.12c-16.61 20.73-25.88 51.84-32.59 85.33-6.48 32.35-10.29 66.76-13.93 96.17L1.65 441.43c-2.45 2.95-2.11 7.79.71 10.37l134.61 122.57H0v15.09h445.87v-15.09H217.74l180.9-206.25c2.43-2.8 2.32-7.45-.23-10.14l-51.25-51.15c10.29-9.04 19.79-17.9 27.87-27.1 19.76-22.53 31.53-48.68 32.59-85.09l102.26-46.67c2.46-1.3 4.08-4.05 4.02-6.84V8.32c0-3.8-3.29-7.3-7.09-7.54-57.15-4.79-121.01 13.33-167.27 30.77Zm159.23-15.69v120.78l-101.79 46.44c-2.39 1.27-3.99 3.9-4.02 6.6 0 36.2-10.27 58.22-29.28 79.91-28.08 29.34-57.83 51.97-81.95 73.31-12.57 11.65-34.28 28.32-48.65 15.56-6.39-10.6 3.62-22.83 9.92-31.11 11.75-15.33 30.91-34.33 50.07-57.28 2.37-2.86 2.15-7.51-.47-10.14l-75.57-75.43c-2.98-2.98-8.43-2.53-11.1.71-22.08 27.15-44 55-65.89 82.5 2.83-23.17 5.29-46.69 9.92-69.77 6.4-31.93 15.82-60.67 29.05-77.79 59.13-27.77 113.75-54.27 164.54-73.68 56-20.84 109.73-32.46 155.23-30.61Z"/>
</svg>
