<svg xmlns="http://www.w3.org/2000/svg" viewBox="0 0 112.791 122.767" preserveAspectRatio="xMinYMid" fill="#154a95">
  <path d="M45.101 39.012c-.291.253-.588.5-.862.77-.018.017.134.206.207.315l.955-.686zm3.632-13.268c.202.761.554 1.135 1.381.904-.222-.647-.483-1.13-1.381-.904M44.079 22c-.49-.047-.979-.128-1.467-.123-.168.002-.333.217-.5.334.15.102.305.296.45.288.524-.026 1.045-.12 1.567-.188l-.05-.311m-2.664 19.669c.45.72.875.748 1.234.334.1-.116-.037-.44-.066-.668l-1.168.334m11.194-9.13-.907-1.92c-.63 1.08-.416 1.545.907 1.92m-8.101 8.314-.51 1.394 1.175-.082-.11-1.249-.555-.063m6.414-12.578c.238.921.781 1.387 1.533 1.625.155.049.446-.027.53-.147.085-.12.054-.408-.037-.551-.45-.703-1.149-.88-2.026-.927m-3.74-5.546c-1.168-.724-1.656-.696-2.347.083.797.776 1.51.762 2.347-.083m2.273 1.317c-.638-.743-1.37-.824-2.363-.263.594.932 1.405 1.022 2.363.263m-16.194 2.26c.581-.613 1.1-1.304 1.757-1.823 1.055-.836 2.184-1.582 3.319-2.31.282-.18.704-.145.888-.178.684-.24 1.197-.522 1.738-.594 3.874-.519 7.198.567 9.902 3.49l-.978.43c.272.816.83 1.04 1.555 1.123.309.035.747.23.86.474.525 1.143 1.011 2.31 1.398 3.507.17.525.53 1.136-.276 1.689-.257.176.032 1.15.167 1.756-.651 1.581-.843 1.626-1.705.42-.884.614-.767 1.463.395 2.677l-.771.937c-.426-.676-.908-.487-1.19.03-.158.288-.012.742-.003 1.122l.282.087-.949.473-.232-1.185c-.445.326-.885.508-1.06.834-.095.174.267.595.496 1.048l-1.354.643-.067-1.21c-.186.05-.465.043-.538.162-.192.314-.294.683-.433 1.03l.197.08-.945 1.017.152.283c.492-.096.99-.167 1.476-.29 5.57-1.422 9.833-8.36 7.262-15.189-1.769-4.696-5.422-6.875-10.15-7.478-4.516-.577-8.01 1.316-10.66 4.885-.41.55-.586 1.275-.87 1.919l.337.142m6.023 55.138 4.097-.195-.017-.318-4.094.252.014.26m10.804-1.03-3.765.288.019.33 3.784-.179-.038-.439m7.751-.626c-1.813.168-3.36.31-4.905.464-.045.004-.078.131-.254.445 1.654-.089 3.148-.156 4.638-.27.147-.012.27-.32.521-.639m14.852-.239c.067-.686-.232-.88-.832-.82-.966.094-1.942.105-2.903.233-.302.04-.57.345-.853.528l.141.305 4.447-.246m-12.63.348c.277.13.558.375.832.367 1.429-.043 2.856-.151 4.337-.24.075-.442.067-.804-.549-.754-1.51.124-3.019.255-4.528.383l-.093.244m-3.675 15.081c-1.545 0-2.892-.03-4.235.023-.315.012-.619.308-.927.474l.103.236c1.462 0 2.926.027 4.386-.029.21-.008.405-.411.673-.704m-19.462.224c-.164.543-.064.812.549.793a70.097 70.097 0 0 1 3.267-.007c.518.008.793-.162.688-.786zm11.92.671c.149-.715-.088-.89-.628-.88-1.375.025-2.75.008-4.125.008l-.193.221c.182.217.357.615.547.622 1.459.053 2.92.029 4.4.029m13.817-9.082c.263.805.675 1.032 1.32.982 1.46-.113 2.925-.166 4.382-.303.32-.03.616-.31.923-.475l-.116-.204zm-7.242.34.372.905c1.438 0 2.808.045 4.17-.036.302-.018.576-.485 1-.87zm-2.127.334h-4.91l.082 1.022H53l.292-1.022M58.22 94.8c.123.702.468.889 1.069.867 1.437-.053 2.878-.005 4.314-.074.362-.017.71-.32 1.065-.491l-.116-.302Zm-12.009-7.15h-5.39l.413 1.095c1.375 0 2.746.056 4.105-.046.289-.021.534-.623.872-1.049m-7.165.285h-4.91v1.08c1.369 0 2.758.044 4.138-.043.243-.016.451-.587.772-1.037m-10.762 7.321c.083.777.452 1.004 1.135.975 1.32-.057 2.644-.05 3.965-.037.634.007.964-.186.784-.938zm-2.597 1.377.835-1.282c-1.695 0-3.416-.013-5.137.004-1.384.013-1.401.04-2.086 1.278zm5.36-7.078v-1.433c-1.663 0-3.334-.108-4.977.06-.55.056-1.028.814-1.681 1.373zM45.051 67.56c-1.327.218-2.656.431-3.981.66-.163.029-.36.109-.456.231-1.344 1.727-2.673 3.466-3.951 5.281.986-.145 2.073.318 2.891-.716.706.659 1.153.172 1.884-.205 2.171-1.12 2.555-3.355 3.776-5.051l-.163-.2m6.394-1.069c-1.444.23-2.906.384-4.321.73-.513.126-.914.709-1.366 1.083l.12.23 1.554-.107.065.295c-.499.134-1.017.22-1.49.415-.365.15-.769.37-.987.677-.525.74-.967 1.541-1.406 2.338-.13.237-.138.542-.201.816.267.045.538.145.8.124.73-.06 1.456-.179 2.186-.257.59-.063 1.166-.126 1.453-.766.044-.097.167-.213.262-.222 1.248-.126 1.55-1.205 2.033-2.059.568-1.005 1.041-2.064 1.556-3.1l-.258-.197m-8.313 26.54-1.642.257v-1.195c1.048.98 2.142.75 2.65-.33.384-.814.945-1.545 1.544-2.5-1.581.084-3.052.005-4.444.3-.743.157-1.36.917-2.295.362-.765 1.589-2.054 2.882-2.064 4.78 1.421 0 2.853.032 4.283-.013.92-.028 1.505-.657 2.07-1.268l-.102-.394m-11.385-2.815-3.14 4.553c1.991 0 3.771.07 5.54-.037a2.11 2.11 0 0 0 1.702-1.023c.833-1.371 1.749-2.691 2.629-4.03-1.475 0-2.84-.007-4.204.008a.713.713 0 0 0-.466.19c-.592.637-1.288.602-2.061.339m2.146-2.867c1.942 0 3.731.014 5.52-.018.21-.004.492-.21.614-.404 1.098-1.732 2.168-3.482 3.34-5.377-1.439.07-2.736.125-4.031.21-.139.009-.303.167-.39.299-.545.82-1.245 1.136-2.204.666l-2.85 4.624m24.83-22.06c-1.802.3-3.393.539-4.97.848-.272.053-.523.374-.717.624-.208.268-.338.597-.519.93l.827.258.025.267c-.294.092-.585.248-.882.26-.56.024-.913.233-1.169.754-.375.765-.847 1.48-1.254 2.23-.1.184-.214.506-.13.609.134.163.435.285.652.267 1.114-.093 2.223-.237 3.334-.363.088-.01.199.009.259-.038.682-.53 1.567-.941 1.992-1.633.945-1.54 1.66-3.221 2.552-5.012M35.037 76.203l2.638-.297.06.388c-.53.1-1.064.297-1.59.279-1.273-.044-2.16.433-2.813 1.546-.457.78-1.099 1.453-1.654 2.177-.164.215-.312.442-.588.834.351-.056.491-.035.547-.094 1.006-1.062 1.513-1.169 2.992-.604.463.176.923.359 1.138.443.742-.419 1.32-.74 1.894-1.07.166-.096.372-.18.469-.329.917-1.403 1.83-2.81 2.704-4.24.145-.237.231-.666.11-.863-.114-.184-.545-.268-.823-.242-1.229.114-2.49.155-3.664.486-.615.174-1.076.892-1.608 1.365l.188.221M20.664 94.766c2.315 0 4.402.019 6.489-.021.287-.005.667-.23.836-.471.961-1.37 1.87-2.777 2.84-4.236-.144-.046-.262-.119-.378-.116-1.823.05-3.648.07-5.465.198-.456.032-1.016.312-1.305.662-1.023 1.238-1.949 2.555-3.017 3.984m5.547-7.267h4.584l.216-1.172 1.04.643-.405.462c.663.344 4.125-3.841 4.532-5.552-1.457.084-2.875.237-4.292.226-1.228-.009-2.067.416-2.747 1.463-.86 1.324-1.883 2.543-2.928 3.93m-.181 9.396c-3.875-.263-6.938.01-7.511.744h2.219l.01.214-2.547.17c0 .073 0 .147-.002.22l2.323.153.015.387c-.521.077-1.046.235-1.564.215-1.306-.05-2.243.424-2.873 1.602-.295.55-.775 1.001-1.173 1.501 1.443 0 2.86.215 4.17-.069 1.019-.22 1.949-.486 2.982-.214.163.043.466-.133.586-.295 1.1-1.48 2.173-2.98 3.364-4.628m20.102-7.37-2.677 5.085c1.832 0 3.466.01 5.099-.014.158-.003.324-.198.466-.326.19-.173.344-.509.54-.53.958-.103 1.25-.87 1.651-1.532.62-1.026 1.225-2.062 1.811-3.05-1.534 0-3.072-.067-4.6.03-.713.046-1.406.41-2.109.629l-.18-.292m-4.939 6.85c-1.43 0-2.72-.013-4.007.013a1.24 1.24 0 0 0-.703.271c-.594.484-1.198.584-1.875.136l-2.977 5.365c1.849 0 3.624.017 5.398-.021.232-.005.53-.252.675-.468 1.16-1.723 2.29-3.466 3.49-5.295m19.334-7.837c-1.652.089-3.112.156-4.57.257-.205.015-.403.183-.596.295-.2.116-.413.384-.579.355-1.104-.199-1.36.65-1.751 1.343-.52.92-1.043 1.84-1.552 2.767-.374.68-.214.988.568.987 1.529-.003 3.057-.035 4.584-.1.237-.01.559-.202.681-.406 1.056-1.757 2.076-3.537 3.215-5.498m-4.548 7.798c-2.045 0-4-.006-5.955.013-.135.002-.321.154-.394.286-.956 1.746-1.895 3.5-2.885 5.338 1.884 0 3.662.027 5.437-.027.268-.008.606-.34.773-.607 1.023-1.64 2.005-3.307 3.024-5.003m-5.743-15.138c-1.28.068-2.536.127-3.791.211a.716.716 0 0 0-.449.236c-.61.727-1.317.8-2.148.303l-3.16 5.217c.234.041.388.094.54.091 1.614-.036 3.229-.057 4.84-.141.372-.02.897-.157 1.069-.423 1.097-1.695 2.116-3.44 3.156-5.173.021-.036-.017-.11-.057-.32m14.714-.519c-1.41 0-2.742-.013-4.074.011-.27.005-.66.064-.786.244-.398.566-.84.874-1.557.714-.107-.023-.315.154-.39.287-.847 1.51-1.678 3.03-2.508 4.55-.034.064-.004.163-.004.104 1.772 0 3.529-.015 5.285.009.566.007.905-.184 1.178-.701.929-1.763 1.91-3.5 2.856-5.218m-17.723-7.343c-.811.095-1.653.193-2.495.293-.606.071-1.207.087-1.43.87-.065.233-.479.503-.745.516-.7.034-.978.47-1.277.991-.716 1.248-1.486 2.464-2.202 3.712-.126.22-.21.608-.1.779.107.167.491.21.754.21.586.003 1.178-.118 1.758-.074 1.869.142 2.993-.942 3.914-2.335.695-1.052 1.272-2.184 1.988-3.221.463-.67.514-1.195-.165-1.741m-5.475 28.794c-.082-1.181.682-.77 1.286-.835v.85c.544-.024 1.108.003 1.65-.095.301-.054.669-.248.83-.495 1.128-1.717 2.21-3.464 3.364-5.293-1.645 0-3.184-.004-4.723.008-.133 0-.3.077-.392.175-.572.601-1.229.609-2.005.253l-2.463 4.78c.595.962 1.508.634 2.453.652m-15.436-4.57-1.157 1.81.602.285c-1.534-.233-1.368 1.256-2.102 2.177.59.182 1.061.439 1.539.453 1.408.04 2.82.004 4.229-.05.28-.01.66-.152.81-.363 1.217-1.717 2.39-3.465 3.642-5.298-1.723 0-3.324-.006-4.924.011-.138 0-.347.128-.399.249-.454 1.065-1.245 1.117-2.24.726m21.7-10.721c1.936 0 3.869.008 5.8-.012.21-.002.517-.106.613-.263 1.111-1.821 2.19-3.662 3.358-5.632-.95 0-1.694-.01-2.436.003a26.94 26.94 0 0 0-1.94.09c-.277.025-.651.075-.795.26-.405.518-.857.766-1.518.663-.125-.02-.34.111-.41.232-.926 1.59-1.834 3.192-2.671 4.659m.59-10.057c-.426.163-.844.346-1.265.522.113.142.208.385.343.41.587.106 1.019-.114 1.224-.785-.153-.078-.248-.167-.301-.147m-.867-1.181c.344-.587.576-1.287 1.472-1.273.186.003.498-.218.546-.392.311-1.123 1.223-1.058 2.083-1.134.468-.04.943-.075 1.395-.188.766-.19 1.38-.127 1.664.74-.921 1.59-1.867 3.18-2.768 4.795-.653 1.168-1.613 1.786-2.946 1.852-.615.031-1.247.017-1.842.152-.76.173-1.313-.022-1.816-.755.736-1.264 1.47-2.533 2.212-3.797m6.3 26.39c.953-.272 1.922.34 2.639-.556.04-.05.244-.031.323.025 1.176.832 2.489.2 3.728.34.145.017.375-.177.47-.333a422.597 422.597 0 0 0 3.007-4.985c.05-.084.006-.225.006-.505-.523 0-1.037-.006-1.551.003-.942.012-1.884.05-2.826.042-.7-.006-1.355-.096-1.728.77-.111.259-.749.286-1.14.432-.251.094-.622.143-.719.328-.735 1.4-1.416 2.83-2.208 4.44M62.92 86.29c2.116 0 4.143.03 6.168-.031.308-.01.714-.375.888-.682.996-1.763 1.936-3.559 2.918-5.386-1.133 0-2.227-.059-3.312.017-1.149.08-2.29.282-3.431.45-.115.016-.252.138-.311.247-.985 1.8-1.958 3.606-2.92 5.385m6.002 1.673c-1.86.107-3.645.052-5.36.376-.867.164-1.5 1.2-2.608 1.148-.16-.007-.344.633-.527.968-.7 1.281-1.404 2.56-2.14 3.903 1.172 0 2.242.009 3.31-.004.41-.005.825-.114 1.23-.082 1.964.158 3.145-.913 4.014-2.496.687-1.251 1.368-2.506 2.081-3.813m12.903-26.465c-2.214.364-4.211.682-6.202 1.036-.187.033-.392.262-.492.452-1.03 1.948-2.04 3.907-3.039 5.83.331.677.74.948 1.486.7.85-.282 1.74-.453 2.622-.633.255-.052.537.035.864.063.2-.805.599-1.476 1.644-1.413.102.006.26-.139.315-.251.913-1.865 1.813-3.736 2.802-5.784m-15.117 2.498c-2.453.4-4.625.742-6.79 1.122-.21.036-.452.263-.556.465a242.39 242.39 0 0 0-2.536 5.04c-.265.544.065.953.705.898.966-.082 1.93-.195 2.902-.295.273-.805.521-.868 1.13-.372.587-.218 1.121-.399 1.638-.62.194-.082.417-.222.509-.397.978-1.872 1.932-3.755 2.998-5.84m-2.68 6.75c1.842-.234 3.522-.447 5.203-.662.058-.007.158-.007.167-.033.317-.99 1.513-1.074 1.966-1.777 1.094-1.693 1.972-3.525 3.062-5.533-1.05.17-1.861.295-2.67.432-1.274.215-2.547.427-3.816.666-.234.044-.562.147-.651.323-1.084 2.133-2.13 4.285-3.262 6.585m-1.786 2.114-.741-1.087c-1.266.142-2.58.273-3.888.45-.217.03-.41.252-.61.391-.387.27-.77.545-1.154.818-.157.111-.377.188-.463.34-1.055 1.86-2.091 3.732-3.184 5.693.285.086.5.218.703.202 1.7-.13 3.402-.254 5.093-.466.374-.047.84-.357 1.035-.683 1.11-1.868 2.152-3.777 3.209-5.658m-2.558 6.368c1.835-.144 3.552-.278 5.27-.415.055-.004.127-.02.162-.058.733-.774 1.59-1.468 2.16-2.348.91-1.403 1.64-2.922 2.41-4.41.129-.248.195-.663.07-.864-.112-.184-.532-.273-.803-.249-1.288.116-2.57.301-3.858.426-.474.046-.726.2-.846.704-.072.3-.366.712-.628.771-.722.164-.96.7-1.242 1.245-.873 1.691-1.752 3.38-2.695 5.198m8.044-1.709c.342.805.934 1.004 1.73.867.518-.088 1.056-.06 1.582-.114.811-.082 1.45-.33 2.202-.854 2.67-1.858 2.773-5.082 4.609-7.332l-.237-.303c-1.618.205-3.238.397-4.851.633-.162.024-.27.334-.427.484-.27.257-.554.692-.84.698-.757.016-.945.504-1.214 1.035-.837 1.648-1.71 3.279-2.554 4.886M89.72 64.727c-1.342-.419-2.803.574-3.916-.637 1.333-.074 2.667-.142 4-.232.145-.01.35-.117.41-.238.282-.57.523-1.162.831-1.868l-2.257.398-.056-.182c.583-.2 1.155-.451 1.753-.588.826-.19 1.285-.642 1.335-1.59-1.546.26-3.074.516-4.6.774-1.334.225-2.67.43-3.995.696-.294.059-.67.274-.794.524a229 229 0 0 0-2.765 5.815c-.299.647.153 1.2.861 1.102 2.33-.321 4.66-.662 6.992-.962.65-.083 1.074-.335 1.307-.974.25-.684.582-1.337.894-2.038m-7.43 16.264-.958-.147c1.471-.37 1.762-1.603 2.225-2.791l-7.549.288c-.038.374-.07.676-.102 1h3.95l.018.237-2.267.196c-.92.08-1.859-.06-2.692.604-.292.232-.892.078-1.482.107l-2.23 4.395.481.3-.921.882c.177.039.465.17.746.155 2.672-.13 5.344-.276 8.015-.446.246-.015.605-.164.7-.356.711-1.445 1.37-2.915 2.067-4.424m-.664-8.366c1.07-.167 2.138-.439 3.213-.472 1.125-.034 1.87-.342 2.198-1.509.2-.715.596-1.376.934-2.127-2.721.347-5.353.588-7.939 1.074-.738.139-1.632.52-2.06 1.463-.922 2.025-1.955 4-2.92 5.951.457.715 1.018.893 1.767.803 2.244-.272 4.496-.48 6.742-.741.226-.026.537-.183.628-.368.608-1.23 1.166-2.485 1.849-3.97-1.592.101-2.981.19-4.37.277l-.042-.38m-17.02 24.591-2.16 4.612c1.1-.137 2.142.352 2.962-.346 1.002.63 2.02.214 3.095.25v-1.391l.196-.076 1.16 1.524 1.098-.183-1.014-2.469.324-.206 2.342 2.855 2.347-4.954-2.92-.225c0-.06-.003-.118-.003-.177l1.735-.272-.04-.207h-4.297c.246-.88-.375-1.148-1.102-1.487h4.835l.017.185h-3.646c.11.26.13.358.153.358 1.231.018 2.35.924 3.641.47.055-.02.143-.004.168-.04.785-1.105 1.314-.314 1.926.478l4.056-8.77-.828-.186 1.02-.537h-8.05l-.035.317c.358.051.724.07 1.07.165.227.063.423.237.632.361-.189.148-.36.335-.57.436-.508.244-1.019.502-1.557.65-.53.147-1.096.164-1.892.272l-2.341 4.582 1.03 1.328-.576.957 1.889.21-.044.374c-.211-.018-.435.003-.632-.06-1.06-.341-1.471-.175-2.019.773-.455.788-1.14.834-1.971.43m18.986 2.89.194 1.15.94-1.133-.145-.284-1.014.301.025-.035M33.593 3.814l-.396-.976c-.163.094-.478.238-.466.276.102.316.263.613.407.916l.455-.216m32.373 47.17-.445-1-.812.527.992.716.265-.242m2.517 1.964c-.265-.296-.509-.619-.81-.874-.094-.08-.365-.023-.51.056-.058.032-.053.378.022.427.364.235.762.417 1.148.618l.15-.227M54.65 6.473c.31.254.57.552.644.512.278-.15.533-.388.703-.653.036-.055-.386-.554-.483-.52-.279.097-.5.362-.864.66m22.226 113.044c.785.275 1.587.159 2.39.025l.018-.26-2.372-.115-.036.35m.715 2.636-2.747-.463c.02.649.853.868 2.695.748l.052-.285m-9.006-3.533-1.695.393h3.694c-.661-.58-.661-.58-2.028-.372l.029-.02m-14.59-65.114 1.487 2.074.215-.104-.416-2.485-1.286.515m34.046 67.092c-3.711-.221-7.414-.908-11.136-.488l-.008.44 11.116.371.028-.323M27.739 25.469l.379-1.006-3.506-.926-.05.2 3.177 1.732m31.74-.432 3.479-1.835-.04-.136-3.95.906.511 1.065M37.15 46.564l-.86 3.48.192.09 1.869-3.198-1.2-.372M59.55 36.505l3.767 1.238c.03-.06.06-.121.088-.182l-3.519-2.184-.336 1.128m-9.524-20.641 1.254.564 1.307-4.165-.173-.085c-.78 1.206-1.562 2.411-2.388 3.686M28.18 37.872l-.542-1.246-3.57 2.533.107.211 4.005-1.498m23.78 7.49-1.473.704 2.43 3.477.16-.113-1.116-4.069M36.158 14.615c1.071.078.9.76.754 1.5l1.289-.603-2.645-5.595-.136.055.65 3.255c.573.216.773.66.088 1.388M59.13 43.55c-.771-.003-.905-.153-.745-1.267-1.007.299-1.266-.18-1.011-1.143l-.23-.093-1.421 1.242 4.849 3.337-1.442-2.076M29.94 19.418c.51.147 1.222-.56 1.388.517l1.11-1.005-4.614-3.175c.07 1.065 1.662 1.219 1.29 2.461.878-.056 1.225.306.827 1.202m14.158-8.669c-.026.104.013.223.008.335-.021.454-.048.909-.077 1.446-.071.36-.147.753-.228 1.143-.049.235-.213.524-.129.686.08.155.411.21.642.248.309.05.628.044 1.061.069l-.424-7.344c-.28 1.119-.571 2.267-.853 3.417M26.723 30.132l-8.004 1c.68.227 1.128.399 1.59.517.12.032.279-.13.427-.153.276-.043.612-.156.824-.048.368.188.642.37.998-.014.064-.07.354.072.54.113.185.042.468.177.538.105.542-.553.854-.218 1.15.374.724-1.05 1.254.04 1.937.144zm16.775 17.54 1.308 7.181h.155c.035-.428.052-.86.112-1.285.05-.352.158-.696.229-1.046a.67.67 0 0 0-.01-.306c-.268-.931-.27-.93.34-1.444-.735-.91-.73-1.005.107-1.805-.827-.625-.845-.734-.157-1.562l-2.084.267M60.5 31.298c.337-.3.608-.72.83-.696.299.033.56.41.839.641.747-.878.819-.876 1.603.084.775-1.047 1.035-1.084 1.796-.223.558-.36 1.102-.918 1.83-.245.078.073.434-.155.664-.402L60.35 28.84l.149 2.46m-2.331-12.12c.021-.313.005-.566.064-.8.06-.24.19-.66.293-.661.863-.012.935-.702 1.177-1.257.034-.079.087-.194.152-.209.921-.221.955-1.173 1.362-1.867l-6.262 4.487 1.905 1.78.246-1.845 1.063.373M30.534 45.505c.093-1.305.16-1.355 1.055-1.033l.678-.808-1.507-1.743-4.449 6.718.22.183c.188-.918 1.411-.818 1.558-1.847.02-.146.673-.202 1.144-.33.205-.525-.022-1.698 1.3-1.14m-.999-13.54c-.06.324-.227.738-.174 1.12.03.22.418.39.483.446-.029.552-.134 1.058-.041 1.525.04.201.49.32.64.41-.045.369-.177.783-.126 1.174.112.868.84.38 1.2.444-.142.433-.459.896-.347 1.202.114.315.647.478 1.027.727-.317.8.015 1.323.968 1.3.15 1.126.667 1.566 1.595 1.353-.102.995.171 1.173 1.34.87-.053 1.058.21 1.235 1.281.835l.114.675.739-.233c.197.237.407.711.652.73.328.024.683-.302 1.09-.51l-.115 1.05 1.292-.504c.276.732.629.82 1.4.271.797.818.96.725 1.893-1.234v1.73l1.515-.848.22.426c.706-.172 1.419-.297 2.091-.536.245-.088.393-.448.59-.69.96.372 1.256.176 1.152-.692h1.505c-.153-.332-.215-.45-.261-.572-.038-.097-.056-.2-.1-.366.889.344 1.704.633 1.254-.784.347-.025.788.067 1.027-.112.199-.149.161-.615.214-.873.31-.117.693-.236 1.035-.428.04-.022-.149-.45-.279-.825.605-.225 2.018-.033 1.232-1.51 1.168-.603 1.303-.892.773-1.633.976-.528.976-.528.384-1.914l.99.07c-.137-.52-.221-.928-.353-1.318-.096-.285-.275-.448.236-.58.227-.06.294-.735.461-1.21l-1.018-.179c.528-.481 1.306-.798.712-1.697h-.832c1.013-.962.958-1.724-.355-2.307l.772-.41c-.38-.522-.73-.995-1.056-1.483-.018-.028.173-.195.192-.216-.38-.621-.688-1.202-1.074-1.726-.213-.289-.557-.481-.965-.82-.088-.91-.551-1.208-1.368-.848-.123-.367-.156-.83-.405-1.082-.183-.185-.647-.093-.972-.123-.078-.205-.157-.755-.33-.787-.318-.059-.692.19-1.091.326l.287-.86c-.36-.079-.675-.15-.992-.214-.13-.027-.349-.004-.377-.069-.33-.764-.738-.415-1.027-.164-.311-.268-.582-.697-.837-.688-.91.033-1.848-.91-2.683-.083-.316-.159-.657-.491-.945-.45-1.696.243-3.604-.248-5.11 1.224-.644-.369-.859-.274-.99.486-.38.021-.777-.06-1.04.092-.2.115-.234.524-.305.709-.237 0-.623-.116-.817.027-.29.215-.447.611-.696.985-.72-.243-1.18.15-1.202 1.285-.97-.284-1.181.349-1.267 1.081-.904.192-1.704 1.68-1.42 2.66-.754-.325-.827.321-.864.704-.037.377.212.78.327 1.147h-.68c-.514.941.48 1.04.864 1.575h-1.17c-.348.743.028 1.105.62 1.442l-.944.063.461 1.414m-1.005 7.88c-2.653.655-5.325 1.233-7.992 1.829-.516.115-1.043.177-1.565.264l-.13-.278 8.363-6.616c-.19-.434-.341-.774-.457-1.036-4.91-.71-9.705-1.536-14.411-2.913 1.305-.38 2.558-.934 3.915-.582.23-.11.509-.326.815-.377 2.986-.5 5.975-.988 8.97-1.442.728-.11 1.002-.468 1.171-1.169.172-.71-.273-.871-.674-1.141-2.32-1.561-4.642-3.119-6.96-4.682-.231-.156-.442-.342-.661-.514.42-.118.78-.071 1.132.013 2.66.634 5.32 1.271 7.976 1.92.41.1.802.276 1.032-.276.202-.486.76-.786.25-1.525-2.016-2.934-3.933-5.937-5.877-8.921-.257-.396-.456-.83-.682-1.247l.188-.15 10.928 7.282c.33-.639.823-1.14.785-1.596-.306-3.664-.72-7.32-1.077-10.98-.04-.399.063-.81.1-1.216l.286-.037c.177.286.373.561.53.857 1.608 3.011 3.198 6.03 4.829 9.03.157.288.578.657.832.625.587-.073 1.302.105 1.527-.913.895-4.047 1.906-8.069 2.887-12.097.097-.398.276-.776.417-1.163l.325.024c.178 1.201.382 2.399.526 3.604.386 3.214.75 6.43 1.109 9.646.067.602.222.979.933 1.142.684.157.817-.272 1.08-.627 1.683-2.27 3.354-4.548 5.046-6.812.2-.268.498-.464.751-.693l.24.15c-.029.305-.022.618-.092.914-.63 2.66-1.267 5.32-1.913 7.976-.302 1.237-.313 1.234.878 1.754 4.112-2.55 7.86-5.618 12.103-8.016-2.298 4.342-5.089 8.333-7.88 12.623 2.14-.427 4.008-.807 5.88-1.17 1.87-.362 3.746-.705 5.62-1.057l.16.424-9.992 6.216c.574.241.954.453 1.362.562 1.42.38 2.844.749 4.278 1.073 2.696.61 5.397 1.196 8.1 1.769.533.113 1.042.627 1.663.06.128-.118.68.17.991.35.09.052.107.447.011.556-.155.177-.543.407-.639.339-1.07-.752-2.078 0-3.085.12-2.92.349-5.83.793-8.74 1.223-1.09.16-2.168.388-3.25.585l-.09.288 9.56 6.7-.125.226c-.28-.059-.562-.107-.84-.177-3.137-.787-6.272-1.585-9.414-2.355-.258-.064-.774-.01-.8.09-.086.313-.1.73.049 1.004.53.983 1.126 1.932 1.722 2.878 1.41 2.237 2.836 4.464 4.27 6.716l-.845.897-9.005-6.39c-1.465.617-1.558 1.522-1.137 2.603.052.135.069.285.1.429l1.305 6.187-1.338.634c-1.448-2.032-2.878-3.974-4.226-5.972-.374-.555-.728-.615-1.31-.508-.642.118-.643.553-.72 1.03-.69 4.238-1.393 8.473-2.103 12.707-.047.281-.192.545-.291.817l-.265-.009c-.17-.548-.384-1.087-.504-1.646-.795-3.708-1.56-7.422-2.368-11.128-.085-.39.026-.981-.719-1.01-.693-.026-1.3-.247-1.821.564-1.605 2.502-3.31 4.938-4.985 7.394-.197.288-.446.54-.67.81a1.64 1.64 0 0 1-.092-.958c.512-2.716 1.021-5.432 1.552-8.144.28-1.433.298-1.43-1.061-2.156-4.053 2.898-8.02 5.928-12.308 8.537.334-.876.78-1.628 1.243-2.37.738-1.183.741-1.178 1.96-.596.11.051.247.044.371.063l.096-.203-1.36-.84 5.555-8.964c-.474-.288-.454-1.04-1.298-.832m11.573 74.048c-.003.133.276.382.422.377.156-.005.432-.251.427-.383-.007-.21-.206-.412-.439-.816-.217.407-.407.613-.41.822m-4.178 1.742c-.207.981.208 1.54 1.301 1.516l-.718-.548c.295-.624.101-.939-.583-.968m2.37-.053c.59.628 1.637.636 2.767 0zm-13.836 4.197c.215.006.44-.369.66-.575-.21-.22-.388-.556-.64-.625-.19-.052-.474.234-.93.489.43.358.666.705.91.711m1.18-.944c.07.997.838.705 1.353.769.488.06.963-.006.88-.77zm67.306-38.247-.472.53c.312.288.631.482.772.765.055.11-.357.4-.437.648-.058.181.077.426.15.749 1.222-1.103 1.222-1.104-.013-2.692m2.832-16.525c.275.757.87.75 3.442-.193l-3.442.193m-65.184 53.171-.59-1.025H28.12l-.038.244 1.584.347-1.14.37c1.058.97 1.415.962 2.066.064M88.912 80.8c-.176.019-.457.226-.468.363-.014.174.157.461.322.535.954.425 2.735-.161 3.492-1.17-1.158.09-2.254.159-3.345.272m-9.53 15.778-.624-1.484-.644 1.23-.734-.53c1.022.972.083 1.737-.252 2.528a142.464 142.464 0 0 1-1.994 4.502c-.287.62-.278 1.06.325 1.503.573.42 1.051.969 1.571 1.461l.16-.154-1.93-1.986.125-.168.317.07c.06-.466.02-.943.187-1.33.887-2.038 1.826-4.054 2.767-6.125l.726.483m3.3-7.128-.714-.65.973-2.367.8.56c-.534-.673-.352-1.27-.039-1.97 1.238-2.76 2.407-5.553 3.616-8.328.11-.255.32-.468.634-.576.014-.31-.06-.659.056-.924.964-2.207 1.962-4.398 2.978-6.655l.704.462-.469-1.04.917.091c-.745-.449-.512-.91-.283-1.42 1.003-2.223 1.982-4.457 2.963-6.69.124-.282.209-.582.196-.92-4.84 9.928-9.292 20.023-13.474 30.094l1.142.333m-25.721 29.232c-.51.456-1.703.355-2.531.2-1.03-.191-1.99-.726-3-1.051-.363-.117-.783-.054-1.222.096l.545.394-.03.19h-9.32c-.208-.677-.58-.544-1.347-.246-1.237.481-2.597.253-3.91-.072-.54-.134-1.141-.022-1.715-.022l-.016.293 1.346.099-.065.802c.313-.022.802.056.876-.083.238-.455.566-.267.867-.241 1.135.097 2.267.278 3.403.308 1.39.037 2.783-.071 4.174-.06.316.003.63.24 1.105.433.607-.698 1.648-.398 2.581-.338 1.62.104 3.225.465 4.845.546a16.368 16.368 0 0 0 3.848-.253c.718-.137 1.35-.72 2.022-1.103l-.082-.213c-.782.028-1.482-.477-2.374.32m-9.142-6.617.629-3.073 1.43 4.752.277-.042.585-2.677c.964 1.23.098 3.069 1.753 3.806l-1.233-4.651.322-.104 1.13 2.951.234-.018.19-2.97.281-.085c.143.363.359.714.413 1.09.084.571.24 1.234.04 1.725-.497 1.215.292 1.754.968 2.442l-.345-3.801.23-.058c.54 1.176.546 2.75 2.286 3.195v-1.887l.246-.139 1.102 1.406-.889-3.543.299-.126 2.11 4.193.247-.054c.493-2.487-.22-4.946-.262-7.45H45.122l.563 5.467.098-.024.59-2.59.377-.004 1.07 2.27M88.544 59.48c-7.655 1.283-15.307 2.58-22.964 3.848a3590.525 3590.525 0 0 1-24.295 3.951c-.773.123-1.242.435-1.695 1.03-8.467 11.125-16.953 22.235-25.431 33.35-.367.481-.706.984-1.066 1.625 1.865-.51 2.926.542 3.984 1.883h-2.425l-.076.313c.482.169.964.481 1.446.483 4.387.018 8.775-.06 13.161-.011 1.104.012 2.198.042 3.302-.032 1.192-.08 2.392-.058 3.588-.078 1.177-.02 2.355-.041 3.533-.053 1.207-.013 2.414-.016 3.621-.024l3.534-.021c1.177-.008 2.355-.018 3.533-.029 1.207-.01 2.414-.018 3.621-.034 1.178-.016 2.356-.041 3.533-.062.638-.012 1.279-.054 1.914-.018.261.015.512.2.585.232.547-.105.948-.248 1.35-.25 4.432-.015 8.864-.01 13.318-.01-.518-.555-1.006-1.008-1.96-.968-2.44.102-4.895.16-7.326-.02-1.01-.074-1.873.495-2.847.275-.556-.126-1.123-.204-1.707-.307-.194.614-.49.609-1.934-.214l.221.776-1.989-1.036.485.848-.21.211c-.356-.319-.705-.647-1.07-.954-.218-.183-.461-.333-.692-.497l-.196.198.275.932c-.173.018-.336.047-.498.05-4.357.05-8.715.1-13.073.142-1.796.016-3.593.006-5.39.016-.884.005-1.767.035-2.65.043-.913.008-1.828.044-2.738-.007-.753-.042-1.5-.195-2.174-.288l.176.38-.967-.39c-.233.105-.495.322-.76.327-2.65.057-5.3.092-7.95.093-.415 0-.83-.205-1.039-.218-.18.081-.434.283-.529.225-.815-.504-1.602-1.053-2.397-1.589l.141-.392c7.463 0 14.927.087 22.388-.025 7.472-.112 14.942-.422 22.377-.644.373 1.062.47 1.07 1.202.394.207-.19.55-.32.835-.326 1.913-.037 3.835-.14 5.739-.008 1.527.105 3.01-.293 4.528-.183.267.02.654-.3.825-.566.348-.54.566-1.162.88-1.726.1-.18.333-.286.56-.47-.286-.762.31-1.972 1.119-1.859-.098-.26-.206-.498-.259-.748-.006-.03.288-.122.345-.145.073-.36.08-.702.211-.989 5.616-12.338 11.243-24.672 16.868-37.007.01-.023-.003-.056-.015-.242-1.646.275-3.261.544-4.876.815m-4.953 40.626-.401.498-.805-1.213 1.282-.593-.047-.173-3.754.42-.031.38c.407.058.825.2 1.22.155.757-.086 1.261.133 1.669.803.297.49.77.872 1.245 1.389l1.144-1.378-1.048-1.652-.5 1.4zM68.585 118.62l-3.19-.3c.183-.253.312-.405.41-.574.109-.186.19-.388.295-.61-1.11-.172-1.11-.172-1.012 1.195l-1.184.244.022.22h1.767l-.003.112-1.897.309-1.412-.113-.108.246c.153.168.38.506.447.476.371-.162.704-.413 1.051-.633.354.015.714.079 1.059.033.568-.076.943.126 1.248.597.113.175.367.26.557.386l.127-.9c2.425.281 4.954-.098 7.361.848l-5.134.511.023.217 5.499.82.058.267c-.31.104-.624.298-.933.292-.628-.011-1.255-.127-1.881-.206-.555-.07-1.107-.187-1.663-.214-1.38-.07-2.762-.096-4.143-.146-.622-.023-1.243-.06-1.865-.09l-.017.187 1.809.292c-1.51.348-3.014.618-4.539.215-1.065-.283-2.111-.754-3.19-.844-1.66-.137-3.342-.009-5.014-.017-.62-.003-1.24-.075-1.86-.116-.01.065-.022.13-.033.194l1.045.434c-.201.204-.345.27-.483.26-1.155-.097-2.282.077-3.478-.323-1.327-.444-2.841-.365-4.278-.428-.547-.024-1.106.191-1.66.297l.03.188.848.223-.06.306c-.41-.082-.817-.209-1.231-.239-2.15-.156-4.301-.292-6.452-.426-.55-.034-1.108.01-1.653-.06-.865-.11-1.722-.286-2.582-.433l.024-.301c.123-.038.249-.069.367-.117.118-.049.228-.116.342-.175-5.325-.141-10.613-.24-15.768-1.584v-.33l7.348-.64c-.123-.284-.362-.525-.613-.538a298.47 298.47 0 0 0-5.92-.24c-2.1-.071-4.2-.123-6.3-.195-.15-.005-.298-.11-.447-.17l.009-.317h5.516c0-.492-.005-.723.002-.954.01-.33.028-.66.043-.989l.93.309-.65-2.268.256-.104.898 1.93.088-.052-.982-4.654.289-.11c.743 1.429.722 3.358 2.59 4.206v-1.854c.97.876.67 2.547 1.866 3.242l.305-.119-.824-4.648.289-.073 1.352 3.615.436-3.263 1.65 2.921.314-.078.607-2.028.265-.024.412 2.782c1.622-1.142.788-2.677 1.129-4.146.356.92.576 1.646.918 2.308.166.32.534.656.865.726.21.044.521-.387.803-.619.25.695.163 1.638 1.237 2.173v-2.435l.288-.057c.25.688.498 1.377.747 2.066l.208-.064-.887-3.993 3.111 2.897c-.227-1.224-1.223-2.066-1.211-3.29l.288-.153 2.203 3.58-.61-2.653c1.257.832 1.565 2.444 3.116 2.732l-.84-3.342.376-.148 1.49 2.69.167-.06v-2.442c1.319.22.712 1.756 1.724 2.217l-.457-5.576c-2.142 0-4.168-.015-6.194.003-6.27.054-12.542.123-18.813.177-.22.003-.495-.027-.654-.155-1.276-1.03-2.53-2.087-3.855-3.188l10.928-14.126c-.13-.341-.368-.67-.286-.811.135-.228.475-.338.736-.486.286-.16.672-.235.855-.47a4656.68 4656.68 0 0 0 12.171-15.708c.115-.15.292-.433.24-.502-.586-.771.122-.765.535-.967.249-.122.517-.269.685-.478.846-1.057 1.644-2.153 2.5-3.2.198-.242.541-.444.848-.501 1.646-.31 3.302-.571 4.956-.842 7.69-1.26 15.384-2.494 23.07-3.782 8.672-1.452 17.335-2.957 26.007-4.412.254-.042.67.144.823.358.665.934 1.234 1.936 1.891 2.876.374.536.53.991.118 1.59-.23.333-.298.777-.447 1.193.974 0 1.85.128 2.669-.035.853-.17 1.28.089 1.507.735-.188 1.047-.966 1.143-1.727 1.21-.85.075-1.707.142-2.557.112-.651-.023-.923.274-1.16.819-1.797 4.125-3.619 8.24-5.431 12.36-.161.365-.307.736-.466 1.118 1.004 0 1.913.042 2.815-.015.547-.035.81.168 1.116.605.81 1.15 1.207 2.255.038 3.39-.242.233-.565.523-.862.536-1.44.063-2.888.103-4.326.021-.666-.037-.927.186-1.171.742-1.717 3.905-3.463 7.796-5.194 11.695-.187.42-.337.857-.528 1.348.418 0 .753.059 1.059-.01 1.389-.313 2.331.15 2.75 1.534.114.375.333.929.17 1.14-.462.59-.602 1.578-1.744 1.476-1.17-.103-2.355-.01-3.531-.058-.585-.023-.909.14-1.114.726-.37 1.053-.858 2.064-1.242 3.112-.171.465-.419.614-.903.618-3.21.023-6.418.082-9.628.115-.993.01-2.061.259-2.8-.735-.028-.039-.138-.018-.148-.02.1.748.211 1.464.288 2.183.188 1.756.333 3.517.56 5.268.05.387.39 1.064.557 1.052.686-.05.535-.708.578-1.18.035-.381.007-.768.007-1.153l.321-.034.739 2.757c.867-1.626.025-3.157.108-4.76l1.425 4.455.303-.063-1.128-7.162.082-.042 2.243 4.324.175-.09-.179-1.428.265-.064.861 2.876c.05-.015.102-.03.152-.043l-.656-3.333 2.046 3.137.194-.115-1.324-3.214.277-.142c.775 1.44 1.55 2.88 2.46 4.567 0-.99.039-1.735-.011-2.473-.05-.721-.19-1.437-.29-2.154l.22-.07c.232 1.618.698 3.126 1.978 4.472l.437-2.063c.182.345.266.458.304.584.227.76.416 1.53.678 2.278.08.232.348.399.53.595.182-.2.4-.38.535-.608.144-.244.208-.535.307-.805l.18.049.256 1.599.237.043.847-2.722.285 1.32.16-.016.465-1.556 1.477 2.809.134-.06-1.008-4.276.165-.035 1.512 3.943.346-.07.362-1.962.228-.05 1.186 2.051.732-2.396 1.064 1.862.197-.038.636-3.42 2.394 4.017.281-.134-2.35-7.704c.32.222.485.499.604.794.715 1.772 1.4 3.558 2.142 5.318.208.494.577.92.872 1.378l.351-.11.434-2.604.313-.071 1.24 3.237c.33-1.886-.92-3.425-1.054-5.218l2.308 4.118.232-.119.079-1.643c.715 1.273.491 2.695 1.73 3.531l.376-1.202.194-.035.649 1.558.216-1.385c.073.01.145.018.217.026l.106.509 1.392.793.277-.35c.387.645.186.98-.441 1.153-.94.26-1.873.54-2.81.811l.015.18 1.788.382-.045.275c-1.038-.104-2.08-.18-3.113-.322-.822-.114-1.627-.353-2.45-.456a156.03 156.03 0 0 0-5.02-.528c-.218-.02-.452.125-.68.193.093.213.138.472.29.626.183.183.457.277.81.477l-1.583.572 5.358.597-.027.301c-1.362-.37-2.673.428-4.114-.082-1.133-.401-2.44-.346-3.673-.424-.886-.055-1.814.161-2.659-.03-.842-.191-1.5-.255-2.205.335-.513.428-1.249.149-1.735-.442-.14-.17-.448-.264-.687-.283-1.159-.09-2.431.348-3.338-.98l-.892 1.606c-.112-.14-.24-.246-.3-.382-.257-.564-.637-.634-1.095-.269-.877.7-1.517.738-2.602.116.203-1.141 1.427-.438 1.962-1.03-1.103-.799-2.976-.365-4.054.898z" opacity=".2"/>
</svg>
