<svg xmlns="http://www.w3.org/2000/svg" viewBox="0 0 112.791 122.767" preserveAspectRatio="xMinYMid" fill="#154a95">
  <path d="M64.415 96.07h1.555l.005-.107-1.47-.19v-1.61l2.16.121.022-.07-3.033-.991.081-.32 5.86.53v4.6c-1.56 0-3.12-.003-4.678.002-.456.001-.64-.208-.592-.66.043-.404.057-.812.09-1.306m-23.712 9.144-.654.762-.352-.968.95-.085.056.29m2.202-.105-1.705.193.582-1.096 1.221.453-.098.45m3.098-.804-.088.546-.627-.562c-.423 1.473-.993.321-1.661.296l.72-1.01h-.779c.07-.295.15-.576.202-.863.037-.205.036-.418.051-.628.266.053.59.028.784.175.356.27.633.643.966.997-.874.766.254.748.475 1.105l-.044-.055m34.025-1.745c-.1.031-.18.084-.237.065-.053-.016-.083-.109-.123-.168.066-.04.144-.125.196-.112.06.016.095.119.164.215m-58.27 17.742-2.614.605-.066-.291 2.625-.511.055.197m23.478-37.525-.437-4.449.215-.017.205 4.48c0 .002.017-.014.017-.014m58.976 36.272c-.292.25-.532.556-.624.516-.244-.105-.424-.36-.629-.554.21-.157.406-.399.636-.439.145-.025.343.253.617.477M79.092 97.347l-.516 1.402-1.121-.915 1.637-.487m23.476 18.97 1.082.121-.171.786-1.031-.385.12-.522m-2.836 2.718-.4-1.12c.312-.047.749-.248.914-.114.529.43.109.801-.167 1.147l-.347.087m-53.668 2.223c-.187.178-.358.483-.565.51-.47.06-.956-.017-1.436-.038.11-.18.187-.483.334-.52.47-.122.966-.146 1.452-.207l.215.255m-29.144-2.94 4.787-1.19.082.314c-1.544.599-3.183.833-4.786 1.2l-.084-.323m87.888-66.3-4.27-.882c1.208-.711 3.354-.281 4.27.881m-11.402.824c-.198-2.257 1.992-3.55 4.456-2.72-1.84.338-3.55.699-4.456 2.72M85.143 63.18l-1.73.645.066.294h3.712l.094.234c-.162.13-.327.377-.488.375-2.333-.03-4.666-.093-6.998-.154-.041-.001-.08-.072-.156-.145.55-.059 1.07-.12 1.59-.171.748-.075 1.5.107 2.049-.793.244-.401 1.16-.392 1.772-.569l.089.284m-60.518 59.588c3.378-.923 6.602-2.76 10.538-1.702l-10.538 1.702m58.36-22.487c.081.29.19.678.3 1.064-1.04.627-1.604 1.439-1.614 2.079-.197-.21-.461-.634-.843-.866-1.268-.77-1.2-1.827.265-2.73l-.498-.655 1.488-1.044c0 .53-.049.827.015 1.097.054.23.237.43.363.643.115-.152.202-.384.352-.436.253-.088.545-.062.821-.083.008.26.066.535-.002.774-.024.087-.347.09-.648.157m28.231 8.887c-.456-.063-.925-.078-1.367-.196-2.482-.666-4.938-1.44-7.44-2.016-2.7-.62-5.44-1.06-8.15-1.634 5.787.564 11.572 1.145 17.037 3.3l-.08.546m-94.182-53.06c-4.468.474-8.934.791-13.382-.16 4.472-.742 8.928-.38 13.382.16M7.75 37.733c.11 1.1-.587 1.204-1.314 1.462l.263-.478c-1.874 0-3.72.001-5.564-.002-.266 0-.557.035-.788-.061-.166-.069-.327-.321-.347-.507-.012-.112.236-.337.393-.364.345-.06.71.002 1.06-.04.246-.03.575-.074.707-.24 1.283-1.61 3.008-1.445 4.777-1.184l-3.063 1.155.045.259zm81.9 16.319c7.717-.328 15.43-.033 23.141.391-7.716.143-15.432.4-23.145.086l.003-.477m-70.865-23.98c-1.643.91-3.28 1.828-4.933 2.718-.174.094-.482.11-.649.02-2.085-1.139-4.71.22-5.524 2.6a1.192 1.192 0 0 1-.473.635c-.035-.407-.143-.823-.093-1.22.338-2.703 3.29-4.458 5.862-3.553.353.124.863.086 1.202-.079 1.486-.722 3.019-1.159 4.608-1.121M87.612 64.47c.372-.09.743-.257 1.115-.259 5.601-.02 11.203-.02 16.804-.023.316 0 .633 0 .97-.152l-2.287-.496c.816-.39 1.725-.362 2.374.067 1.005.664 2.075.564 3.14.692.322.039.644.073.966.24-7.67.58-15.35.158-23.022.303l-.06-.372m9.933-2.184c1.117-.271 2.192-.595 3.291-.768.454-.071 1.004.095 1.422.32.231.123.377.59.376.902-.001.218-.318.434-.579.754-.286-1.18-1.111-1.637-2.356-1.384-.982.199-1.94.508-2.926.772-.027-.374.03-.792-.123-1.107-.066-.136-.57-.058-.92-.08.023-.036.095-.13.147-.233.504-1 .199-1.588-.91-1.546-.963.036-1.92.252-2.883.39l.318-.47c-1.441-1.352-3.847-.782-4.34 1.039-.098.358.222.83.384 1.364-.206.041-.443.105-.683.132-.625.071-1.244.115-1.502.859-.035.099-.346.102-.53.15l-.172-.321 1.787-1.378c-.36-1.311.08-2.51 1.355-3.342 1.308-.853 3.037-.735 4.34.14.268.181.716.203 1.057.148 1.59-.26 2.197.022 2.91 1.446.04.078.072.162.123.233.732 1.019.733 1.018.414 1.98M31.544 36.135c.175-.98-.152-1.435-1.217-1.53-1.33-.119-2.587.194-3.76.83-.274.148-.541.307-.87.495.946-1.84 4.431-2.834 6.026-1.733.357.246.554.723.823 1.09.814.106 1.71.121 2.545.356 1.037.293 1.191 1.207 1.12 2.22l7.528.644.005.135c-.62.052-1.238.147-1.858.15-4.147.014-8.294.01-12.442.008-6.607-.004-13.215-.021-19.822.005-.592.002-1.182.28-1.785.431l.558-1.493h1.03c8.238.023 16.476.044 24.714.074.475.002.901.013.984-.602.076-.562-.157-1.012-.692-1.057-.957-.081-1.925-.023-2.887-.023m22.468-8.183c.238 1.581 1.19 2.11 2.538 1.53-1.137.12-1.838-.546-2.538-1.53m4.617-4.329c1.05 1.195 1.021 2.534.54 4.003 1.459-1.138 1.177-3.2-.54-4.003m-3.575 6.744-.342-.226-3.14 4.85.3.194zm18.14-4.951c-3.272-.247-6.495-.59-9.748-.141l8.875.623v1.804l.138.004.735-2.29m12.96-19.19-.075-.136c-.196.095-.402.177-.589.288-4.676 2.797-9.371 5.565-14.018 8.41-2.314 1.417-4.766 2.638-6.679 4.66-1.158 1.223-2.45 2.323-3.696 3.461-.322.294-.702.525-1.101.819l1.309 1.44.163-.128-.393-.83.246.186 1.187-1.821 1.073 1.448.115-.095-.99-1.751 1.107.586-.642-1.062 2.131-2.13c1.138-1.14 1.137-1.14 2.198-.057.018.019.092-.019.214-.048l-.452-1.225c.556-.36 1.108-.652 1.578-1.042.575-.476 1.081-.69 1.683-.013l-.336-.864 1.162-.67.698.934.132-.11-.522-1.116 14.497-9.133m-19.29 17.895c1.22-.189 24.09-17.475 27.115-20.708l-.463-.58-26.652 21.288m-11.588-.583.188-.119c-.063-.169-.088-.368-.194-.503-1.552-1.979-3.102-3.96-4.686-5.914-.31-.382-.74-.681-1.152-.966A9419.156 9419.156 0 0 0 28.516 1.634c-.372-.256-.834-.383-1.254-.57.297.371.53.833.901 1.097 2.606 1.853 5.244 3.659 7.857 5.5.234.165.364.476.49.648.28.092.602.126.837.286 3.841 2.617 7.688 5.225 11.491 7.896.98.687 1.812 1.584 2.696 2.371l-.657.957.89-.27-.512.877c1.057-.698 1.497.02 2.016.708.627.833 1.333 1.606 2.005 2.405m-3.801-.231-.094-.093-1.16 1.017-.204-.239 2.073-1.904a52.93 52.93 0 0 1-.09-.127l-2.672 1.66c-.318-.22-.613-.413-.898-.62-1.334-.969-2.801-1.803-3.97-2.942-2.435-2.376-4.703-4.923-7.055-7.384-3.15-3.295-6.312-6.58-9.484-9.856-.343-.355-.782-.615-1.177-.92l-.216.236c.254.333.48.693.766.997 6.118 6.48 12.242 12.955 18.373 19.424.259.273.568.559.91.682 2.047.739 4.111 1.43 6.175 2.141l.528-.884-1.104.462-.139-.223 1.036-1.652c-1.796 1.5-1.796 1.5-2.326 1.294l.728-1.07m.37 22.892c.044.178.2.451.145.673-.09.367-.312.703-.484 1.05-1.593 3.203-3.24 6.381-4.764 9.616-1.208 2.564-2.271 5.196-3.385 7.804-.13.306-.171.65-.254.975l.233.128c.151-.172.336-.324.447-.519.278-.487.54-.986.778-1.495 3.8-8.117 7.532-16.266 11.422-24.34 1.49-3.091 1.238-6.364 1.69-9.568l-.233-.037-.624 5.454-2.844.693.04.216h1.54l-.008.106-1.497.352 1.411.324.301.829h-3.202l.001.125 3.087.545c-1.072 2.281-2.075 4.448-3.12 6.593-.11.228-.47.335-.68.476m15.577-12.096c-.029 1.025-.1 1.852-.068 2.676.323 8.172.722 16.341.982 24.515.32 10.041.518 20.086.801 30.128.02.71-.268.896-.85.9-.977.004-1.955-.026-2.932-.01-.853.012-1.174-.308-1.126-1.22.2-3.788.32-7.58.48-11.37.044-1.029.12-2.057.183-3.124l1.346-.064-1.398-.52.09-.352h2.096c0-.047 0-.093-.002-.14l-2.07-.275.302-10.42 1.511-.263-.504-.294.82-.996-.101-.082-1.634 1.398.415-29.883-1.176.082c.223 21.307-.655 42.518-1.575 63.887h6.601v3.134l.181.008.287-2.864.146.012.143 2.507c.205-1.537.374-3.074.324-4.603-.226-6.96-.512-13.917-.782-20.875-.228-5.893-.464-11.786-.699-17.678-.338-8.468-.686-16.935-1.012-25.404-.051-1.326-.007-2.656-.007-4.099-1.636.169-.56 1.137-.795 1.677l-1.211.334.038.123 1.01.148-.021.169-.983.184 1.322.438c-.403.15-.655.245-1.147.43l1.016.143c.314 1.556-1.19.872-1.845 1.517l1.844.125m-7.539-10.791c1.867-1.788 3.598-3.632 5.527-5.237 1.58-1.313 3.34-2.435 5.116-3.48 7.426-4.376 14.888-8.69 22.337-13.027.126-.073.26-.133.478-.244l1.824 2.329c-1.751 1.36-3.44 2.656-5.112 3.97-5.662 4.45-11.317 8.91-16.98 13.358-.418.327-.711.584-.684 1.248.03.736-.313 1.487-.487 2.201.113.083.157.142.206.147 1.532.156 1.532.156 1.614 1.75.117 2.27.015 2.386-2.223 2.419-.652.01-1.306.021-1.956-.024-.591-.041-.773.188-.752.766.129 3.643.203 7.288.352 10.931.247 6.041.565 12.08.801 18.121.45 11.522.858 23.045 1.3 34.567.066 1.742.217 3.482.334 5.286h1.657c.697 1.572-.049 3.47 1.024 4.727l-16.118.532-.025.147c.161-.07.322-.2.483-.2 1.01 0 1.365-.491 1.356-1.487-.011-1.2.132-2.402.209-3.62h2.07c.085-1.367.183-2.718.25-4.07.953-19.099 1.527-38.208 1.423-57.333-.015-2.761-.436-5.521-.674-8.342-.794-.124-1.69-.289-2.593-.398-.562-.067-2.021 1.174-2.088 1.74-.28 2.352-.54 4.708-.834 7.059a4.89 4.89 0 0 1-.362 1.363c-4.2 9.473-8.414 18.94-12.627 28.409-.07.159-.161.308-.262.498-.668-.22-1.302-.43-2.024-.67.188-.674.361-1.287.53-1.902 2.598-9.536 5.166-19.08 7.827-28.6.399-1.427 1.2-2.75 1.873-4.093.423-.844.955-1.633 1.455-2.477-1.05-.926-.645-2.13-.628-3.28-1.74-.535-3.44-1.13-5.18-1.572-1.855-.47-3.275-1.479-4.553-2.885C38.204 15.82 32.583 9.755 26.981 3.673c-.418-.454-.85-.895-1.3-1.367L27.386 0c2.327 1.563 4.598 3.064 6.843 4.601 5.01 3.431 9.99 6.908 15.023 10.307 1.633 1.102 2.528 2.796 3.75 4.226.885 1.035 1.703 2.129 2.513 3.224.358.485.68.671 1.316.453 1.008-.347 2.042-.369 3.051.5m-3.692 96.216-1.08-.067c.014.255-.056.561.066.72.098.127.501.178.637.08.182-.132.238-.44.377-.733m-.85-1.593.003.236 3.242-.227-.02-.257-3.226.248m-7.225-12.94c.618-.265.718-1.062.214-2.084l-.214 2.084M36.4 73.563l-.086-.246-3.45.634.055.262 3.481-.65m-8.499 36.297.067.278c.743-.045 1.51.01 2.15-.462l-.08-.335-2.137.52m43.97-3.88.273-.129c-.21-.332-.349-.805-.65-.958-.305-.154-.805-.078-1.152.064-.214.088-.302.485-.447.744.97-.91 1.327-.871 1.976.279M24.618 76.97l2.946-2.044c-1.118.47-2.385.731-2.946 2.044m33.119 42.866.011-.242c-.31-.149-.61-.361-.936-.419-.16-.028-.372.23-.56.358.196.206.371.55.592.582.278.04.593-.174.893-.279M33.415 88.551l.045-.043v-5.95l-.045.002zm22.34 19.384.202-.083c-.167-.344-.252-.797-.525-1-.246-.183-.76-.224-1.039-.088-.303.147-.47.572-.697.875l.185.123c.865-1.094 1.137-1.069 1.874.173m-19.465 5.457c-.186-.334-.298-.776-.58-.97-.259-.179-.773-.224-1.045-.081-.305.16-.464.598-.687.915 1.107-.939 1.167-.935 2.312.136m-2.477-6.176v-2.662c-1.27 1.048-.06 1.834 0 2.662m29.892 9.867.034-.272-4.86.259.013.297 4.813-.284m22.6-8.211c.18-.564-.033-1.127-.574-1.331-.421-.159-1.033-.084-1.45.116-.271.13-.345.672-.505 1.025.551-.37.996-.902 1.397-.871.382.03.719.646 1.132 1.06m-2.342 6.38.206.041c-.185-.423-.263-.994-.585-1.23-.331-.242-.975-.329-1.347-.169-.363.157-.555.71-.864 1.148.645-.344 1.125-.801 1.582-.78.35.017.673.637 1.008.989M32.478 71.591l-.003.355c1.437.41 3.018-.58 4.458.306-.103-.244-.25-.627-.411-.633-1.347-.049-2.696-.028-4.045-.028m5.43 39.574c.24-1.022.034-1.73-.69-2.027-.438-.18-1.093-.1-1.546.1-.506.222-.742.765-.618 1.197.512-.348.98-.899 1.517-.978.984-.144.941.903 1.338 1.708m-4.341-10.178.06-.031v-11.39h-.06zm68.617 7.617c-1.445-.629-2.794-.673-4.345-.537 1.366.943 3.434 1.23 4.345.537m-37.716 3.862c-.693-.721-5.507-.721-6.72 0zM38.11 81.683c-.693-2.163-3.744-5.919-5.292-6.607.328 1.063 1.957 1.364 1.642 2.85l.821-.198-.09.53c1.458.747 1.902 2.276 2.92 3.425m13.882 37.769c-1.104.087-2.153.14-3.19.273-.231.03-.425.346-.636.53l.132.267h3.842l-.148-1.07M29.44 70.859c-1.243-3.585-1.71-7.298-1.872-11.063-.28 3.838-.014 7.586 1.872 11.063m1.218-5.567c.961 1.681.322 3.5.568 5.276.45-1.445.45-3.096.007-5.217a5733.53 5733.53 0 0 0-2.817-13.364c-.043-.205-.152-.397-.23-.594a102.4 102.4 0 0 0-.274.079c.049.274.09.55.148.821.877 4.075 1.76 8.148 2.627 12.224.054.254-.017.535-.03.775M28.4 76.625c-.932 1.402-1.854 2.811-2.81 4.197-.133.192-.437.266-.66.393-.086.191-.132.487-.305.648-2.139 2.003-4.299 3.983-6.448 5.975-.868.804-1.722 1.624-2.583 2.436l.174.192c.208-.18.417-.356.622-.538 2.637-2.335 5.206-4.755 7.933-6.98 2.07-1.69 2.927-4.08 4.077-6.323m14.135 41.858-.13-.337c1.12-1.045 2.751-.633 4.053-1.198l-1.525-.108-.325-.813-.184.033-.172.758c-2.404.366-4.827.725-7.245 1.111-.826.132-1.157.623-.983 1.422.182.83.822.383 1.228.339 5.909-.639 11.814-1.317 17.722-1.971 1.205-.134 2.418-.205 3.627-.305l-.003-.252h-1.84l-.212-1.157-.384.064.185 1.114c-.324.027-.67.078-1.017.079-.948.002-1.984.612-2.8-.394-.04-.049-.252.042-.388.068l.138.502-9.745 1.045m3.51-14.123c.127-.221.202-.522.393-.65.814-.546.68-1.375.705-2.153.137-4.32.294-8.64.362-12.96.009-.592-.446-1.19-.686-1.786l-.299.056c-.224.363-.439.733-.676 1.089-.26.39-.486.822-.82 1.138-1.22 1.155-1.325 2.33-.186 3.592.028.032.004.111.004.223l-1.143.903-1.706-1.919-1.899 1.692c-.128-.133-.325-.293-.305-.326.436-.751.897-1.489 1.4-2.306l-7.12-8.229.601 24.313 12.43-1.961-1.099-.773zm-.83-21.568.66 1.072-.147.013-.796-8.588-.05-.004V77.2c-.03 0-.059 0-.089-.002 0-.65-.024-1.3.017-1.948.01-.173.223-.333.342-.499.13.127.342.234.377.383.559 2.384 1.135 4.765 1.614 7.165.15.753.024 1.56.024 2.39h1.856l.23-1.277.293-.007.207 1.462-2.37.189.01.113h2.62c.353 1.353-.978.818-1.488 1.255l3.859 6.215c.125.201.3.393.35.613.05.22-.028.47-.05.706l-.273.08-3.802-4.156.348 15.068 2.53-.337c-.25-.897-.751-.418-1.146-.275-.542-.856-.417-.888.344-1.418.566-.394.885-1.142 1.314-1.732l-.158-.207.698.145c.036.097.085.158.07.199-.23.68.009 1.145.742 1.17.945.031 1.247.543 1.32 1.463l-.814.042-.053.21c.2.05.402.155.598.144 2.662-.15 5.32-.407 7.984-.458 3.88-.075 7.762-.019 11.642.011 1.351.01 1.792-.399 1.823-1.929l-.676.25c.025-.124.058-.232.067-.342.041-.503.033-1.016.128-1.51.062-.323.27-.618.413-.926l.294.027-.463-.702.47-.807c.168.137.384.31.613.495l-.284.458 1.93-.256-.31.871 1.17.202-.191-.782 1.08.1.083.288c-.195.094-.409.162-.578.289-.108.08-.185.242-.212.38-.049.247-.13.53-.056.75.233.68.054 1.083-.65 1.275-.487.133-.96.439-1.443.447-1.134.02-1.135-.034-1.55 1.427L89.2 105.21l.248-1.268-.856.552-.452-.643-.809 1.129-.28-1.064c-.448-.045-1.217.9-1.216-.234-.419.073-.81.2-1.188.172-.115-.008-.199-.443-.202-.452l1.242-1.069-1.685-1.246 1.404-2.403c-.826.262-1.284.13-1.51-.68l.98-.42-.917-.29c.09-.141.147-.335.272-.4.305-.162.64-.263 1.032-.22l1.172-1.286-1.2.47-.205-.132c.189-.274.335-.72.576-.78.356-.089.78.098 1.19.17-.016.738.067.774 1.307.484.698.873.394 1.512-.6 1.989l.232.216 1.033-.652.55.253.723-1.18-.615-.376.988-.962c-.695-.022-1.536.395-1.022-.713.079-.17-.227-.52-.453-.99l1.006.322.323-.494c.227.864.793 1.617-.038 2.482l.9.067v-2.934c.772-.351 1.665-.15 2.308.675l-.631.573c.518 1.078.514 1.091-.663 1.58.737 0 1.35-.166 1.719.063.225.139.072.887.084 1.241.148-.038.5-.205.84-.186.151.008.447.504.394.582-.222.32-.552.563-.894.882.26.7 1.507-.39 1.661.847l-1.07.272-.015.206 1.44.078c.453.335.744.573 1.057.778.518.337.94 2.204.514 2.574-.149.13-.531-.01-.718-.02l-1.398 1.084-.883-.74c-.092.593-.16 1.02-.215 1.38l-2.438-.492c-.126.34-.23.739-.278.732-.342-.047-.672-.177-1.182-.335l-1.268.906c6.763 1.027 13.206 2.285 19.643 4.504-1.852.706-3.55.568-5.236.41-3.008-.28-6.01-.61-9.016-.915a.955.955 0 0 0-.735.198l13.073 1.713c-.038 1.01-.547 1.277-1.532 1.233-6.393-.286-12.789-.512-19.184-.757-.444-.017-.891-.06-1.331-.022-.183.015-.35.213-.524.328.163.14.312.376.492.401a25.81 25.81 0 0 0 2.467.242c5.682.25 11.365.48 17.047.732.271.012.548.142.791.274.036.02-.045.429-.173.532-.162.131-.427.183-.648.183a817.78 817.78 0 0 1-8.318-.046c-.308-.003-.621-.22-.922-.197-.632.049-1.293-.344-1.915.353-.255.287-1.074.077-1.637.081-.88.006-1.761.002-2.649.163 2.61.324 5.223.628 7.828.991.432.06 1.198.417 1.181.564-.094.812-.792.435-1.267.455-2.891.12-5.782.237-8.674.33-3.82.123-7.65.095-11.46.37-3.555.256-7.15.026-10.665.993-1.601.44-3.348.353-5.028.51a2.682 2.682 0 0 0-.827.194h11.518l.012-.256-2.23-.29c8.916-.718 17.785-1.073 26.671-.962.384.005.792-.028 1.142.09.214.073.34.403.507.617-.245.162-.487.462-.734.466-2.482.044-4.973-.09-7.445.076-4.89.327-9.782.537-14.678.74-2.34.096-4.665.562-6.997.863-.724.093-1.458.14-2.166.303-.454.104-.852.49-1.304.56-.78.119-1.583.09-2.377.122-1.376.055-2.753.145-4.13.156-1.948.015-3.898-.057-5.847-.038-1.18.012-2.36.132-3.54.194-.321.017-.657.054-.963-.017-.256-.06-.48-.264-.717-.405.175-.17.426-.31.509-.518.16-.403.226-.844.391-1.51-2.143.23-3.993.44-5.845.62-1.586.153-3.178.248-4.763.414-.634.066-1.277.634-1.685.052.097-.763.27-1.387.205-1.985-.025-.229-.743-.646-.892-.557-1.432.862-3.06.705-4.6.973-1.001.175-2.04.14-3.043.31-.879.15-1.732.448-2.593.696-.477.138-.934.283-1.182-.349-.25-.636.079-.994.627-1.133 1.747-.444 3.485-.988 5.263-1.233 5.718-.787 11.453-1.452 17.18-2.18.508-.064 1.002-.244 1.596-.394-1.275-.781-2.47-.43-3.678-.21-.567.104-1.166.018-1.74.097-4.606.634-9.21 1.282-13.814 1.935-1.453.206-2.913.392-4.348.691-.448.093-.852.494-1.225.814-.455.39-.757.224-.993-.202-.217-.392-.46-.85.184-1.09 1.243-.464 2.497-.9 3.724-1.5-1.536.269-3.067.567-4.61.789-.47.067-1.39-.048-1.394-.125-.051-.792.688-.733 1.179-.86 1.301-.337 2.62-.603 3.933-.897l-.057-.293-7.264 1.424-.11-.363 3.525-1.243-.075-.62c1.057-.349 2.09-.69 3.125-1.03l-.021-.139c-1.122.194-2.253.342-3.362.594-1.753.398-3.48.917-5.24 1.281-.696.144-1.43.034-1.893.759-.04.064-.547-.025-.588-.135-.086-.232-.114-.642.026-.77.317-.291.735-.49 1.138-.667 4.907-2.137 10.044-3.542 15.244-4.733.567-.13.692-.338.712-.863.353-9.182.759-18.361 1.05-27.545.04-1.23-.462-2.48-.758-3.712-.033-.138-.4-.327-.545-.28-.295.093-.653.27-.794.52-.83 1.469-1.571 2.989-2.414 4.45-.379.657-.842 1.312-1.408 1.808-3.233 2.83-6.508 5.613-9.77 8.411-.11.094-.233.173-.49.363-.137-.2-.24-.42-.403-.576-.607-.583-.525-1.054-.015-1.73 3.228-4.284 6.395-8.612 9.593-12.918.166-.223.399-.428.645-.552.896-.453 1.81-.868 2.405-1.15.372-1.062.673-1.886.945-2.72.067-.205.088-.451.044-.66-.072-.345-.204-.679-.33-1.01-.96-2.545-1.47-5.145-1.385-7.897.1-3.227-.013-6.461-.033-9.692-.002-.381 0-.763 0-1.059.12-.1.139-.127.164-.135 1.647-.532 1.681-.498 2.01 1.153.951 4.76 1.976 9.506 2.837 14.282.225 1.245.022 2.586-.106 3.87-.076.766.072 1.05.868.928.757-.116 1.733.099 2.232-.304.492-.397.478-1.396.746-2.109.106-.282.372-.503.565-.751.113.272.278.537.324.82.065.407-.015.84.073 1.239.1.457.243.939.499 1.321.814 1.215.214 2.723-1.223 2.95-.716.114-1.435.208-2.35.34.594.558 1.023 1.04 1.528 1.42 1.775 1.339 2.654 3.306 3.69 5.162 1.352 2.426 2.676 4.868 4.07 7.408.377-.466.672-.862 1-1.227.316-.35.625-.73 1.01-.986 1.066-.706 1.305-1.405.823-2.593-.164-.407-.272-.837-.405-1.257z" opacity=".2"/>
</svg>
